<?xml version="1.0" standalone="no"?>
<!DOCTYPE svg PUBLIC "-//W3C//DTD SVG 1.1//EN" "http://www.w3.org/Graphics/SVG/1.1/DTD/svg11.dtd" >
<svg xmlns="http://www.w3.org/2000/svg">
<metadata>Generated by IcoMoon</metadata>
<defs>
<font id="icomoon" horiz-adv-x="1024">
<font-face units-per-em="1024" ascent="960" descent="-64" />
<missing-glyph horiz-adv-x="1024" />
<glyph unicode="&#x20;" horiz-adv-x="512" d="" />
<glyph unicode="&#xe900;" glyph-name="account-contact" d="M633.6 832h-366.507c-0.255 0.007-0.556 0.010-0.857 0.010-17.839 0-32.635-13.034-35.383-30.098l-0.027-0.205v-4.693c0.53-18.094 14.235-32.829 31.826-34.969l0.174-0.017h371.2zM512 576c79.162-3.004 142.198-67.904 142.198-147.527 0-8.17-0.664-16.184-1.94-23.993l0.115 0.853c-2.695-24.782-11.731-47.041-25.435-65.652l0.262 0.372-14.507-20.48c-6.093-6.767-10.24-15.397-11.495-24.938l-0.025-0.236c0-5.12 17.493-18.773 57.6-33.707l18.773-6.827c15.366-5.173 26.237-19.451 26.237-36.267 0-21.088-17.095-38.184-38.184-38.184-4.272 0-8.38 0.702-12.216 1.996l0.269-0.079c-85.333 27.307-128 61.44-128 113.067 0.143 22.407 7.314 43.111 19.415 60.051l-0.215-0.317 14.080 20.48c9.21 10.795 15.817 24.085 18.685 38.713l0.088 0.54c0.762 3.948 1.198 8.488 1.198 13.13 0 37.626-28.65 68.561-65.325 72.18l-0.3 0.024c-36.777-2.569-65.637-33.034-65.637-70.239 0-5.349 0.596-10.558 1.727-15.565l-0.089 0.471c1.184-13.137 5.969-24.969 13.349-34.73l-0.123 0.17 16.64-23.040c13.031-16.844 21.002-38.18 21.332-61.364l0.001-0.076c0-45.653-22.613-66.987-78.080-91.733l-46.933-20.053c-4.981-2.499-10.853-3.962-17.067-3.962-21.393 0-38.736 17.343-38.736 38.736 0 15.179 8.731 28.319 21.445 34.672l0.224 0.101 42.667 18.773 14.507 5.973 9.387 4.693 6.827 4.267c5.547 3.84 7.68 6.4 7.68 8.533-0.359 5.392-2.393 10.25-5.581 14.123l0.034-0.043-7.253 11.093-5.973 8.107c-17.099 21.274-28.723 47.628-32.349 76.471l-0.077 0.755c-1.299 7.324-2.042 15.756-2.042 24.362 0 79.593 63.539 144.345 142.661 146.301l0.181 0.004zM230.4 691.2v-592.213c0.363-18.066 14.199-32.789 31.852-34.548l0.148-0.012h531.2v620.8h-526.507c-0.338-0.004-0.738-0.006-1.138-0.006-10.693 0-21.022 1.561-30.77 4.467l0.761-0.195zM672 908.8c19.367-0.044 35.364-14.418 37.95-33.079l0.023-0.201v-113.493h122.027c19.367-0.044 35.364-14.418 37.95-33.079l0.023-0.201v-703.147c-0.044-19.367-14.418-35.364-33.079-37.95l-0.201-0.023h-569.6c-0.233-0.002-0.508-0.003-0.783-0.003-59.057 0-107.498 45.449-112.256 103.278l-0.027 0.405v713.813c4.511 55.848 49.308 99.909 105.077 103.239l0.309 0.015h412.587z" />
<glyph unicode="&#xe901;" glyph-name="account-details" d="M512 678.4c-56.554 0-102.4-45.846-102.4-102.4s45.846-102.4 102.4-102.4c56.554 0 102.4 45.846 102.4 102.4v0c0.001 0.127 0.001 0.277 0.001 0.428 0 56.318-45.655 101.973-101.973 101.973-0.15 0-0.301 0-0.451-0.001h0.023zM512 371.2c-92.003-0.034-169.85-60.604-195.876-144.039l-0.391-1.454-2.133-8.107h396.8v8.107c-25.454 81.553-98.288 140.539-185.528 145.046l-0.499 0.021zM512 755.2c0.059 0 0.13 0 0.2 0 98.969 0 179.2-80.231 179.2-179.2 0-60.732-30.212-114.408-76.426-146.818l-0.574-0.382c105.789-42.118 179.2-143.647 179.2-262.322 0-0.027 0-0.055 0-0.082v0.004q0-12.8 0-25.6h-561.92q0 12.8 0 25.6c0 0.023 0 0.051 0 0.078 0 118.675 73.411 220.204 177.3 261.653l1.9 0.669c-46.791 32.792-77.005 86.469-77.005 147.203 0 98.591 79.619 178.587 178.067 179.196h0.058zM896 832h-768v-768h768zM921.6 908.8c28.277 0 51.2-22.923 51.2-51.2v-819.2c0-28.277-22.923-51.2-51.2-51.2v0h-819.2c-28.277 0-51.2 22.923-51.2 51.2v0 819.2c0 28.277 22.923 51.2 51.2 51.2v0z" />
<glyph unicode="&#xe902;" glyph-name="file-add" d="M537.6 808.96v-79.36h87.893zM422.4 588.8c20.643-0.718 37.105-17.626 37.105-38.378 0-19.246-14.158-35.184-32.627-37.969l-0.212-0.026h-183.467c-20.965 0.316-37.839 17.385-37.839 38.396 0 19.203 14.095 35.114 32.504 37.95l0.215 0.027h184.32zM371.2 435.2c20.965-0.316 37.839-17.385 37.839-38.396 0-19.203-14.095-35.114-32.504-37.95l-0.215-0.027h-133.12c-20.965 0.316-37.839 17.385-37.839 38.396 0 19.203 14.095 35.114 32.504 37.95l0.215 0.027h133.12zM716.8 384c19.367-0.044 35.364-14.418 37.95-33.079l0.023-0.201v-69.12h64c20.965-0.316 37.839-17.385 37.839-38.396 0-19.203-14.095-35.114-32.504-37.95l-0.215-0.027h-68.693v-64c-0.316-20.965-17.385-37.839-38.396-37.839-19.203 0-35.114 14.095-37.95 32.504l-0.027 0.215v68.693h-64.427c-20.965 0.316-37.839 17.385-37.839 38.396 0 19.203 14.095 35.114 32.504 37.95l0.215 0.027h69.12v64.427c0 21.208 17.192 38.4 38.4 38.4v0zM716.8 422.4c-98.969 0-179.2-80.231-179.2-179.2s80.231-179.2 179.2-179.2c98.969 0 179.2 80.231 179.2 179.2v0c0 98.969-80.231 179.2-179.2 179.2v0zM526.933 908.8c0.070 0 0.152 0.001 0.235 0.001 7.865 0 15.172-2.391 21.233-6.486l-0.134 0.086 4.693-3.413 151.040-136.96c6.563-5.802 11.065-13.803 12.35-22.84l0.023-0.2v-150.187c-0.316-20.965-17.385-37.839-38.396-37.839-19.203 0-35.114 14.095-37.95 32.504l-0.027 0.215v69.12h-140.8c-19.367 0.044-35.364 14.418-37.95 33.079l-0.023 0.201v145.92h-333.227v-716.8h294.4c19.367-0.044 35.364-14.418 37.95-33.079l0.023-0.201v-5.12c-0.044-19.367-14.418-35.364-33.079-37.95l-0.201-0.023h-337.493c-19.367 0.044-35.364 14.418-37.95 33.079l-0.023 0.201v798.293c0.073 19.495 14.662 35.561 33.517 37.954l0.19 0.020h441.6zM716.8 499.2c141.385 0 256-114.615 256-256s-114.615-256-256-256c-141.385 0-256 114.615-256 256v0c0 141.385 114.615 256 256 256v0z" />
<glyph unicode="&#xe903;" glyph-name="arrow-down" d="M512 908.8c19.367-0.044 35.364-14.418 37.95-33.079l0.023-0.201v-751.36l359.68 392.107c6.63 5.605 15.275 9.012 24.716 9.012 21.208 0 38.4-17.192 38.4-38.4 0-8.156-2.543-15.718-6.879-21.937l0.083 0.125-3.84-4.693-426.24-464.64c-6.581-5.16-14.98-8.274-24.107-8.274s-17.526 3.115-24.192 8.339l0.086-0.065-4.267 4.267-422.4 460.8-3.84 4.693c-4.253 6.094-6.796 13.656-6.796 21.812 0 21.208 17.192 38.4 38.4 38.4 9.441 0 18.086-3.407 24.773-9.058l-0.057 0.047 3.84-3.84 355.84-388.267v750.080c2.217 19.295 18.456 34.139 38.163 34.139 0.233 0 0.466-0.002 0.699-0.006h-0.035z" />
<glyph unicode="&#xe904;" glyph-name="arrow-left" d="M578.56 896.427c5.841-6.701 9.402-15.521 9.402-25.173s-3.561-18.473-9.442-25.219l0.039 0.046-3.84-3.84-386.56-355.84h746.24c20.643-0.718 37.105-17.626 37.105-38.378 0-19.246-14.158-35.184-32.627-37.969l-0.212-0.026h-750.507l388.267-355.84c7.612-7.038 12.361-17.076 12.361-28.223 0-21.208-17.192-38.4-38.4-38.4-7.948 0-15.331 2.414-21.457 6.55l0.136-0.087-4.693 3.84-460.8 422.4c-7.56 7.102-12.27 17.163-12.27 28.324 0 9.167 3.177 17.592 8.489 24.234l-0.060-0.077 3.84 3.84 460.8 422.4c6.791 6.182 15.859 9.968 25.811 9.968 11.227 0 21.328-4.818 28.35-12.499l0.027-0.029z" />
<glyph unicode="&#xe905;" glyph-name="arrow-right" d="M445.44 896.427c7.040 7.627 17.087 12.387 28.247 12.387 7.916 0 15.273-2.395 21.385-6.501l-0.138 0.087 4.693-3.84 464.64-426.24c5.16-6.581 8.274-14.98 8.274-24.107s-3.115-17.526-8.339-24.192l0.065 0.086-4.267-4.267-465.493-426.24c-6.094-4.253-13.656-6.796-21.812-6.796-21.208 0-38.4 17.192-38.4 38.4 0 9.441 3.407 18.086 9.058 24.773l-0.047-0.057 3.84 3.84 388.267 355.84h-750.080c-18.61 2.876-32.692 18.78-32.692 37.973s14.081 35.098 32.476 37.946l0.215 0.027h750.507l-392.107 359.68c-5.57 6.619-8.954 15.238-8.954 24.647 0 10.309 4.062 19.669 10.673 26.567l-0.013-0.014z" />
<glyph unicode="&#xe906;" glyph-name="arrow-up" d="M536.32 900.267l3.84-3.84 422.4-460.8c6.519-6.868 10.529-16.173 10.529-26.415 0-21.208-17.192-38.4-38.4-38.4-9.392 0-17.996 3.372-24.668 8.97l0.059-0.048-3.84 3.84-355.84 388.267v-746.24c-0.316-20.965-17.385-37.839-38.396-37.839-19.203 0-35.114 14.095-37.95 32.504l-0.027 0.215v751.36l-355.84-388.267c-7.103-9.027-18.027-14.77-30.293-14.77-21.236 0-38.45 17.215-38.45 38.45 0 8.97 3.071 17.222 8.219 23.762l-0.062-0.082 3.84 4.693 422.4 460.8c7.102 7.56 17.163 12.27 28.324 12.27 9.167 0 17.592-3.177 24.234-8.489l-0.077 0.060z" />
<glyph unicode="&#xe907;" glyph-name="article-id" d="M369.92 332.8h227.413l55.893 230.4h-226.56zM293.12 16.64c-3.876-16.928-18.808-29.365-36.644-29.365-3.353 0-6.604 0.44-9.698 1.264l0.262-0.059c-17.196 4.052-29.8 19.267-29.8 37.424 0 1.849 0.131 3.667 0.383 5.446l-0.024-0.204v5.12l54.613 219.733h-182.613c-20.643 0.718-37.105 17.626-37.105 38.378 0 19.246 14.158 35.184 32.627 37.969l0.212 0.026h205.653l55.893 230.827h-206.080c-20.965 0.316-37.839 17.385-37.839 38.396 0 19.203 14.095 35.114 32.504 37.95l0.215 0.027h229.547l58.453 239.787c3.915 16.877 18.822 29.263 36.621 29.263 3.207 0 6.32-0.402 9.292-1.159l-0.26 0.056c17.196-4.052 29.8-19.267 29.8-37.424 0-1.849-0.131-3.667-0.383-5.446l0.024 0.204v-5.12l-54.187-219.733h227.84l58.453 239.36c3.876 16.928 18.808 29.365 36.644 29.365 3.353 0 6.604-0.44 9.698-1.264l-0.262 0.059c17.196-4.052 29.8-19.267 29.8-37.424 0-1.849-0.131-3.667-0.383-5.446l0.024 0.204v-5.12l-54.613-219.733h182.613c20.643-0.718 37.105-17.626 37.105-38.378 0-19.246-14.158-35.184-32.627-37.969l-0.212-0.026h-205.653l-55.893-230.4h206.080c20.965-0.316 37.839-17.385 37.839-38.396 0-19.203-14.095-35.114-32.504-37.95l-0.215-0.027h-229.973l-58.027-239.36c-3.876-16.928-18.808-29.365-36.644-29.365-3.353 0-6.604 0.44-9.698 1.264l0.262-0.059c-17.196 4.052-29.8 19.267-29.8 37.424 0 1.849 0.131 3.667 0.383 5.446l-0.024-0.204v5.12l53.333 221.44h-226.987z" />
<glyph unicode="&#xe908;" glyph-name="billing" d="M635.733 789.333v-115.2h116.48zM512 550.4c0.096 0.001 0.21 0.001 0.324 0.001 16.99 0 31.186-11.965 34.621-27.929l0.042-0.233v-23.040h66.987c19.841-1.381 35.413-17.816 35.413-37.887 0-0.030 0-0.061 0-0.091v0.005c-2.987-18.23-17.184-32.426-35.166-35.38l-0.247-0.034h-154.88c-10.779-1.638-18.943-10.839-18.943-21.948 0-9.4 5.845-17.434 14.099-20.666l0.151-0.052h116.48c0.512 0.010 1.117 0.016 1.722 0.016 50.775 0 92.048-40.685 92.997-91.234l0.001-0.089c-0.311-49.182-37.231-89.646-84.863-95.526l-0.47-0.047h-32.853v-17.493c-0.239-19.139-15.811-34.563-34.984-34.563-0.151 0-0.302 0.001-0.452 0.003h0.023c-0.223-0.005-0.486-0.008-0.749-0.008-16.993 0-31.19 11.968-34.622 27.935l-0.042 0.233v19.627h-65.707c-20.16 1.812-35.84 18.627-35.84 39.105 0 0.052 0 0.105 0 0.157v-0.008c0.171 17.071 12.542 31.202 28.802 34.102l0.212 0.031h166.827c0.001 0 0.003 0 0.004 0 12.575 0 22.796 10.074 23.036 22.591v0.022c-0.046 10.858-7.886 19.872-18.211 21.74l-0.135 0.020h-122.453c-1.68-0.113-3.642-0.177-5.619-0.177-49.249 0-89.173 39.924-89.173 89.173 0 1.263 0.026 2.519 0.078 3.769l-0.006-0.179c-0.024 0.797-0.038 1.734-0.038 2.675 0 50.439 39.603 91.629 89.411 94.169l0.227 0.009h28.587v16.64c0.239 19.139 15.811 34.563 34.984 34.563 0.151 0 0.302-0.001 0.452-0.003h-0.023zM558.933 832h-328.533v-768h563.2v533.333h-196.267c-19.367 0.044-35.364 14.418-37.95 33.079l-0.023 0.201v201.387zM606.293 908.8c8.339-0.062 16.034-2.772 22.297-7.33l-0.11 0.076 4.267-3.84 226.133-220.16c5.711-5.573 9.689-12.9 11.062-21.109l0.031-0.225v-630.613c-0.044-19.367-14.418-35.364-33.079-37.95l-0.201-0.023h-644.693c-19.495 0.073-35.561 14.662-37.954 33.517l-0.020 0.19v849.067c0.044 19.367 14.418 35.364 33.079 37.95l0.201 0.023h419.413z" />
<glyph unicode="&#xe909;" glyph-name="calendar" d="M742.4 832h-76.8v-102.4h76.8zM358.4 832h-76.8v-102.4h76.8zM819.2 704c0-28.277-22.923-51.2-51.2-51.2v0h-128c-28.277 0-51.2 22.923-51.2 51.2v0 25.6h-153.6v-25.6c0-28.277-22.923-51.2-51.2-51.2v0h-128c-28.277 0-51.2 22.923-51.2 51.2v0 25.6h-76.8v-140.8h768v140.8h-76.8zM780.8 409.6c20.965-0.316 37.839-17.385 37.839-38.396 0-19.203-14.095-35.114-32.504-37.95l-0.215-0.027h-542.72c-20.965 0.316-37.839 17.385-37.839 38.396 0 19.203 14.095 35.114 32.504 37.95l0.215 0.027h542.72zM780.8 256c20.965-0.316 37.839-17.385 37.839-38.396 0-19.203-14.095-35.114-32.504-37.95l-0.215-0.027h-542.72c-20.965 0.316-37.839 17.385-37.839 38.396 0 19.203 14.095 35.114 32.504 37.95l0.215 0.027h542.72zM896 512h-768v-448h768zM384 908.8c28.277 0 51.2-22.923 51.2-51.2v-51.2h153.6v51.2c0 28.277 22.923 51.2 51.2 51.2h128c28.277 0 51.2-22.923 51.2-51.2v-51.2h102.4c28.277 0 51.2-22.923 51.2-51.2v0-716.8c0-28.277-22.923-51.2-51.2-51.2h-819.2c-28.277 0-51.2 22.923-51.2 51.2v0 716.8c0 28.277 22.923 51.2 51.2 51.2v0h102.4v51.2c0 28.277 22.923 51.2 51.2 51.2v0z" />
<glyph unicode="&#xe90a;" glyph-name="chat" d="M896 448h-307.2v-230.4h136.533c0.228 0.005 0.496 0.008 0.765 0.008 7.151 0 13.818-2.070 19.436-5.642l-0.147 0.088 4.267-2.987 3.84-3.413 77.653-82.773v56.32c0 0.033 0 0.072 0 0.11 0 17.563 11.791 32.373 27.89 36.944l0.271 0.066h36.693zM806.4 908.8c19.367-0.044 35.364-14.418 37.95-33.079l0.023-0.201v-235.52c-0.316-20.965-17.385-37.839-38.396-37.839-19.203 0-35.114 14.095-37.95 32.504l-0.027 0.215v197.12h-640v-460.8h74.667c19.367-0.044 35.364-14.418 37.95-33.079l0.023-0.201v-78.933l83.627 98.56c5.89 7.057 14.229 11.896 23.697 13.204l0.196 0.022h61.44c20.965-0.316 37.839-17.385 37.839-38.396 0-19.203-14.095-35.114-32.504-37.95l-0.215-0.027h-42.667l-139.947-165.547c-7.088-8.305-17.565-13.537-29.264-13.537-19.663 0-35.875 14.78-38.132 33.836l-0.017 0.181v145.067h-75.093c-19.367 0.044-35.364 14.418-37.95 33.079l-0.023 0.201v542.72c0.073 19.495 14.662 35.561 33.517 37.954l0.19 0.020h721.067zM934.4 524.8c19.367-0.044 35.364-14.418 37.95-33.079l0.023-0.201v-312.32c-0.044-19.367-14.418-35.364-33.079-37.95l-0.201-0.023h-30.293v-115.2c0-0.031 0-0.068 0-0.106 0-21.208-17.192-38.4-38.4-38.4-7.418 0-14.345 2.104-20.217 5.747l0.164-0.095-4.267 2.987-3.84 3.84-132.267 141.227h-159.573c-17.558 0.099-32.347 11.837-37.051 27.886l-0.069 0.274v317.013c0.044 19.367 14.418 35.364 33.079 37.95l0.201 0.023h387.84z" />
<glyph unicode="&#xe90b;" glyph-name="chevron-right" d="M267.52 53.333c-6.839-7.056-11.055-16.689-11.055-27.307s4.216-20.251 11.064-27.317l-0.010 0.010c6.976-7.121 16.692-11.536 27.438-11.536 8.444 0 16.252 2.726 22.591 7.345l-0.11-0.076 4.693 3.413 435.2 422.4c7.192 6.987 11.655 16.749 11.655 27.555 0 8.767-2.938 16.847-7.883 23.311l0.068-0.092-3.84 4.693-436.053 422.4c-6.802 6.001-15.79 9.665-25.634 9.665-21.443 0-38.827-17.383-38.827-38.827 0-8.24 2.567-15.88 6.944-22.165l-0.084 0.127 3.84-4.267 407.040-394.667z" />
<glyph unicode="&#xe90c;" glyph-name="chevron-down" d="M906.667 692.48c7.056 6.839 16.689 11.055 27.307 11.055s20.251-4.216 27.317-11.064l-0.010 0.010c7.121-6.976 11.536-16.692 11.536-27.438 0-8.444-2.726-16.252-7.345-22.591l0.076 0.11-3.413-4.693-422.4-435.2c-6.987-7.192-16.749-11.655-27.555-11.655-8.767 0-16.847 2.938-23.311 7.883l0.092-0.068-4.693 3.84-422.4 436.053c-6.001 6.802-9.665 15.79-9.665 25.634 0 21.443 17.383 38.827 38.827 38.827 8.24 0 15.88-2.567 22.165-6.944l-0.127 0.084 4.267-3.84 394.667-407.040z" />
<glyph unicode="&#xe90d;" glyph-name="chevron-left" d="M756.48 53.333c6.839-7.056 11.055-16.689 11.055-27.307s-4.216-20.251-11.064-27.317l0.010 0.010c-6.976-7.121-16.692-11.536-27.438-11.536-8.444 0-16.252 2.726-22.591 7.345l0.11-0.076-4.693 3.413-435.2 422.4c-7.192 6.987-11.655 16.749-11.655 27.555 0 8.767 2.938 16.847 7.883 23.311l-0.068-0.092 3.84 4.693 435.2 422.4c6.802 6.001 15.79 9.665 25.634 9.665 21.443 0 38.827-17.383 38.827-38.827 0-8.24-2.567-15.88-6.944-22.165l0.084 0.127-3.84-4.267-406.187-394.667z" />
<glyph unicode="&#xe90e;" glyph-name="chevron-up" d="M906.667 203.52c7.056-6.839 16.689-11.055 27.307-11.055s20.251 4.216 27.317 11.064l-0.010-0.010c7.121 6.976 11.536 16.692 11.536 27.438 0 8.444-2.726 16.252-7.345 22.591l0.076-0.11-3.413 4.693-422.4 435.2c-6.987 7.192-16.749 11.655-27.555 11.655-8.767 0-16.847-2.938-23.311-7.883l0.092 0.068-4.693-3.84-422.4-435.2c-6.001-6.802-9.665-15.79-9.665-25.634 0-21.443 17.383-38.827 38.827-38.827 8.24 0 15.88 2.567 22.165 6.944l-0.127-0.084 4.267 3.84 394.667 406.187z" />
<glyph unicode="&#xe90f;" glyph-name="client-communications" d="M435.2 832c-63.623 0-115.2-51.577-115.2-115.2s51.577-115.2 115.2-115.2c63.623 0 115.2 51.577 115.2 115.2v0c0 63.623-51.577 115.2-115.2 115.2v0zM435.2 908.8c106.039 0 192-85.961 192-192s-85.961-192-192-192c-106.039 0-192 85.961-192 192v0c0 0.127 0 0.277 0 0.427 0 105.803 85.77 191.573 191.573 191.573 0.15 0 0.3 0 0.45-0.001h-0.023zM793.6 332.8c20.965-0.316 37.839-17.385 37.839-38.396 0-19.203-14.095-35.114-32.504-37.95l-0.215-0.027h-133.12c-20.965 0.316-37.839 17.385-37.839 38.396 0 19.203 14.095 35.114 32.504 37.95l0.215 0.027h133.12zM793.6 204.8c20.965-0.316 37.839-17.385 37.839-38.396 0-19.203-14.095-35.114-32.504-37.95l-0.215-0.027h-133.12c-20.965 0.316-37.839 17.385-37.839 38.396 0 19.203 14.095 35.114 32.504 37.95l0.215 0.027h133.12zM371.2 473.6c21.208 0 38.4-17.192 38.4-38.4s-17.192-38.4-38.4-38.4v0c-63.835-0.197-121.799-25.176-164.808-65.814l0.115 0.108c-40.893-41.551-68.384-96.4-75.404-157.477l-0.116-1.243v-5.973h240.213c19.367-0.044 35.364-14.418 37.95-33.079l0.023-0.201v-5.12c-0.044-19.367-14.418-35.364-33.079-37.95l-0.201-0.023h-286.293c-21.208 0-38.4 17.192-38.4 38.4v0c-0.044 2.091-0.069 4.556-0.069 7.027 0 96.803 38.424 184.632 100.853 249.067l-0.091-0.094c56.665 54.99 133.998 88.958 219.265 89.173h0.042zM896 396.8h-332.8v-332.8h332.8zM900.267 473.6c37.611-0.056 68.508-28.73 72.083-65.409l0.023-0.297v-348.16c-0.056-37.611-28.73-68.508-65.409-72.083l-0.297-0.023h-347.733c-37.611 0.056-68.508 28.73-72.083 65.409l-0.023 0.297v347.733c0.056 37.611 28.73 68.508 65.409 72.083l0.297 0.023h347.733z" />
<glyph unicode="&#xe910;" glyph-name="close" d="M810.667 799.147c6.338 4.682 14.306 7.494 22.93 7.494 10.703 0 20.394-4.331 27.418-11.335l-0.001 0.001c5.94-6.728 9.567-15.621 9.567-25.362 0-8.793-2.956-16.896-7.927-23.369l0.067 0.091-3.413-4.267-293.12-294.4 293.12-293.12c6.914-6.943 11.188-16.519 11.188-27.093s-4.274-20.15-11.189-27.095l0.001 0.001c-7.022-7.004-16.714-11.334-27.417-11.334-8.624 0-16.592 2.812-23.036 7.569l0.106-0.075-4.267 3.84-292.693 293.12-292.693-293.12-4.267-3.84c-6.338-4.682-14.306-7.494-22.93-7.494-10.703 0-20.394 4.331-27.418 11.335l0.001-0.001c-6.509 6.866-10.512 16.164-10.512 26.397 0 8.341 2.659 16.061 7.177 22.358l-0.079-0.115 3.413 4.267 293.12 294.4-293.12 293.12c-6.914 6.943-11.188 16.519-11.188 27.093s4.274 20.15 11.189 27.095l-0.001-0.001c6.943 6.585 16.347 10.635 26.697 10.635 8.199 0 15.805-2.541 22.072-6.879l-0.129 0.084 4.267-3.84 294.4-293.12 292.693 293.12z" />
<glyph unicode="&#xe911;" glyph-name="collapse-vertical" d="M934.4 908.8c0.637 0.038 1.383 0.059 2.133 0.059 21.24 0 38.459-17.219 38.459-38.459 0-20.49-16.024-37.237-36.224-38.395l-0.102-0.005h-375.467v-213.333l62.293 62.72 4.267 3.413c6.413 4.982 14.577 7.987 23.443 7.987 21.208 0 38.4-17.192 38.4-38.4 0-9.4-3.377-18.011-8.985-24.686l0.048 0.059-3.413-4.267-128-128-4.267-3.413c-6.235-4.664-14.097-7.467-22.613-7.467s-16.379 2.804-22.713 7.539l0.1-0.071-5.12 3.84-128 128-3.413 4.267c-4.664 6.235-7.467 14.097-7.467 22.613s2.804 16.379 7.539 22.713l-0.071-0.1 3.84 5.12 4.267 3.413c6.235 4.664 14.097 7.467 22.613 7.467s16.379-2.804 22.713-7.539l-0.1 0.071 5.12-3.84 62.72-61.44v213.333h-396.8c-20.643 0.718-37.105 17.626-37.105 38.378 0 19.246 14.158 35.184 32.627 37.969l0.212 0.026h849.067zM547.84 401.92l4.267-3.413 128-128c8.13-7.081 13.239-17.451 13.239-29.013 0-21.214-17.198-38.412-38.412-38.412-9.652 0-18.472 3.56-25.219 9.438l0.046-0.039-4.267 3.413-62.293 61.44v-213.333h371.2c20.643-0.718 37.105-17.626 37.105-38.378 0-19.246-14.158-35.184-32.627-37.969l-0.212-0.026h-849.067c-20.643 0.718-37.105 17.626-37.105 38.378 0 19.246 14.158 35.184 32.627 37.969l0.212 0.026h401.067v213.333l-62.293-61.44c-6.997-6.858-16.589-11.090-27.169-11.090-8.732 0-16.792 2.883-23.278 7.749l0.1-0.072-4.267 3.413c-6.858 6.997-11.090 16.589-11.090 27.169 0 8.732 2.883 16.792 7.749 23.278l-0.072-0.1 3.413 4.267 128 128c6.997 6.858 16.589 11.090 27.169 11.090 8.732 0 16.792-2.883 23.278-7.749l-0.1 0.072z" />
<glyph unicode="&#xe912;" glyph-name="exit-fullscreen" d="M627.2 908.8h5.12c17.16-2.255 30.598-15.693 32.833-32.661l0.021-0.192v-274.347h273.493c18.61-2.876 32.692-18.78 32.692-37.973s-14.081-35.098-32.476-37.946l-0.215-0.027h-316.587c-17.16 2.255-30.598 15.693-32.833 32.661l-0.021 0.192v316.16c2.255 17.16 15.693 30.598 32.661 32.833l0.192 0.021zM396.8 908.8c19.367-0.044 35.364-14.418 37.95-33.079l0.023-0.201v-312.32c-0.044-19.367-14.418-35.364-33.079-37.95l-0.201-0.023h-311.893c-19.807 1.681-35.247 18.172-35.247 38.27 0 18.582 13.199 34.082 30.734 37.635l0.246 0.042h273.067v269.227c0.044 19.367 14.418 35.364 33.079 37.95l0.201 0.023zM934.4 371.2c20.643-0.718 37.105-17.626 37.105-38.378 0-19.246-14.158-35.184-32.627-37.969l-0.212-0.026h-273.067v-268.8c-0.044-19.367-14.418-35.364-33.079-37.95l-0.201-0.023h-5.12c-19.367 0.044-35.364 14.418-37.95 33.079l-0.023 0.201v311.467c0.044 19.367 14.418 35.364 33.079 37.95l0.201 0.023h311.893zM396.8 371.2h5.12c17.16-2.255 30.598-15.693 32.833-32.661l0.021-0.192v-317.013c-2.255-17.16-15.693-30.598-32.661-32.833l-0.192-0.021h-10.24c-17.16 2.255-30.598 15.693-32.833 32.661l-0.021 0.192v273.067h-273.493c-18.61 2.876-32.692 18.78-32.692 37.973s14.081 35.098 32.476 37.946l0.215 0.027h311.467z" />
<glyph unicode="&#xe913;" glyph-name="comingsoon" d="M460.8 691.2c19.367-0.044 35.364-14.418 37.95-33.079l0.023-0.201v-209.92c-0.316-20.965-17.385-37.839-38.396-37.839-19.203 0-35.114 14.095-37.95 32.504l-0.027 0.215v209.92c0 21.208 17.192 38.4 38.4 38.4v0zM460.8 345.6c28.277 0 51.2-22.923 51.2-51.2s-22.923-51.2-51.2-51.2c-28.277 0-51.2 22.923-51.2 51.2v0c0 28.277 22.923 51.2 51.2 51.2v0zM445.013 857.6c0.445 0.018 0.968 0.029 1.493 0.029 21.224 0 38.429-17.205 38.429-38.429 0-20.699-16.364-37.575-36.861-38.398l-0.075-0.002c-178.562-6.646-320.796-153.005-320.796-332.583 0-183.8 149-332.8 332.8-332.8 181.624 0 329.266 145.492 332.738 326.285l0.005 0.325-57.6-79.36c-7.049-9.798-18.42-16.103-31.264-16.103-6.34 0-12.321 1.536-17.591 4.257l0.215-0.101-3.84 2.133c-9.798 7.049-16.103 18.42-16.103 31.264 0 6.34 1.536 12.321 4.257 17.591l-0.101-0.215 2.987 4.693 128 179.2c6.984 9.532 18.137 15.652 30.72 15.652s23.736-6.12 30.646-15.545l0.074-0.106 2.987-4.267 102.4-179.2c3.105-5.42 4.936-11.913 4.936-18.835 0-21.208-17.192-38.4-38.4-38.4-12.168 0-23.014 5.66-30.050 14.49l-0.060 0.078-2.987 4.267-32.853 57.6c-15.125-213.343-191.911-380.687-407.782-380.687-225.745 0-408.747 183.002-408.747 408.747 0 220.003 173.812 399.411 391.608 408.394l0.814 0.027z" />
<glyph unicode="&#xe914;" glyph-name="comment" d="M512 832c-213.333 0-384-160-384-354.987 0.735-99.91 44.282-189.505 113.181-251.457l0.312-0.276c15.262-14.081 24.787-34.181 24.787-56.506 0-11.864-2.69-23.099-7.493-33.13l0.199 0.462-2.987-6.4-8.96-15.36 75.947 29.867c9.139 4.116 19.811 6.514 31.044 6.514 5.168 0 10.217-0.508 15.1-1.476l-0.491 0.081 7.253-2.56c40.328-14.332 86.842-22.614 135.291-22.614 0.287 0 0.574 0 0.861 0.001h-0.045c213.333 0 384 160 384 354.56s-170.667 353.28-384 353.28zM512 908.8c256 0 460.8-193.28 460.8-431.787s-204.8-431.36-460.8-431.36c-0.629-0.003-1.372-0.005-2.116-0.005-57.054 0-111.77 10.007-162.489 28.363l3.325-1.051-213.333-85.333c-2.715-1.070-5.86-1.691-9.15-1.691-11.074 0-20.505 7.031-24.074 16.873l-0.056 0.178c-1.020 2.749-1.611 5.926-1.611 9.24 0 5.087 1.391 9.849 3.813 13.926l-0.069-0.126 85.333 141.653c-85.602 76.182-139.511 186.378-140.372 309.18l-0.001 0.153c0 238.507 204.8 431.787 460.8 431.787z" />
<glyph unicode="&#xe915;" glyph-name="community" d="M704 832h-384v-230.4h115.2c0.087 0.001 0.191 0.001 0.294 0.001 8.453 0 16.23-2.892 22.397-7.74l-0.078 0.059 4.693-3.84 3.413-3.84 46.080-61.44 46.080 61.44c4.79 6.502 11.539 11.314 19.367 13.589l0.259 0.065h126.293zM742.4 908.8c19.367-0.044 35.364-14.418 37.95-33.079l0.023-0.201v-312.32c-0.044-19.367-14.418-35.364-33.079-37.95l-0.201-0.023h-139.093l-65.28-85.333c-7.078-9.41-18.223-15.432-30.774-15.432-8.478 0-16.314 2.748-22.667 7.401l0.108-0.075-4.267 3.84-3.84 4.267-65.28 85.333h-134.4c-17.558 0.099-32.347 11.837-37.051 27.886l-0.069 0.274v317.013c0.044 19.367 14.418 35.364 33.079 37.95l0.201 0.023h464.64zM793.6 409.6c-21.208 0-38.4-17.192-38.4-38.4s17.192-38.4 38.4-38.4c21.208 0 38.4 17.192 38.4 38.4v0c0 21.208-17.192 38.4-38.4 38.4v0zM230.4 409.6c-21.208 0-38.4-17.192-38.4-38.4s17.192-38.4 38.4-38.4c21.208 0 38.4 17.192 38.4 38.4v0c0 21.208-17.192 38.4-38.4 38.4v0zM512 307.2c-21.208 0-38.4-17.192-38.4-38.4s17.192-38.4 38.4-38.4c21.208 0 38.4 17.192 38.4 38.4v0c0 21.208-17.192 38.4-38.4 38.4v0zM793.6 230.4c-38.13-0.090-71.353-21.006-88.908-51.972l-0.265-0.508-3.84-6.827v-4.693h189.44v4.693c-14.908 31.059-44.099 53.182-78.823 57.966l-0.537 0.061h-8.533zM230.4 230.4c-38.13-0.090-71.353-21.006-88.908-51.972l-0.265-0.508-3.84-6.827v-4.693h187.733v4.693c-14.449 30.444-42.566 52.356-76.201 57.944l-0.599 0.082h-8.533zM512 128c-38.13-0.090-71.353-21.006-88.908-51.972l-0.265-0.508-3.84-6.827v-4.693h189.44v4.693c-14.449 30.444-42.566 52.356-76.201 57.944l-0.599 0.082h-8.533zM793.6 486.4c0.216 0.001 0.472 0.002 0.728 0.002 63.388 0 114.773-51.386 114.773-114.773 0-32.724-13.695-62.249-35.667-83.157l-0.048-0.045c56.153-28.311 94.901-83.864 98.961-148.821l0.026-0.512v-11.093c0-21.208-17.192-38.4-38.4-38.4v0h-256c6.143-14.916 10.259-32.192 11.492-50.26l0.028-0.514v-13.227c0-21.208-17.192-38.4-38.4-38.4h-279.893c-19.625 0.1-35.761 14.906-37.957 33.955l-0.017 0.178v4.267c0.002 23.021 4.387 45.018 12.366 65.202l-0.419-1.202h-256c-19.367 0.044-35.364 14.418-37.95 33.079l-0.023 0.201v5.12c0.013 69.884 40.026 130.419 98.39 159.957l1.023 0.47c-21.843 20.997-35.413 50.462-35.413 83.097 0 63.623 51.577 115.2 115.2 115.2s115.2-51.577 115.2-115.2c0-32.635-13.57-62.1-35.375-83.061l-0.038-0.036c47.202-23.947 81.901-66.753 94.466-118.234l0.254-1.233c7.933 6.387 16.899 12.076 26.474 16.704l0.833 0.363c-21.843 20.997-35.413 50.462-35.413 83.097 0 63.623 51.577 115.2 115.2 115.2s115.2-51.577 115.2-115.2c0-32.635-13.57-62.1-35.375-83.061l-0.038-0.036c10.428-5.055 19.382-10.596 27.701-16.928l-0.394 0.288c12.989 52.516 47.643 95.133 93.695 118.567l1.025 0.473c-22.019 20.953-35.715 50.478-35.715 83.202 0 63.388 51.386 114.773 114.773 114.773 0.256 0 0.512-0.001 0.767-0.003h-0.039z" />
<glyph unicode="&#xe916;" glyph-name="cross" d="M318.293 641.707c6.997 6.858 16.589 11.090 27.169 11.090 8.732 0 16.792-2.883 23.278-7.749l-0.1 0.072 4.267-3.413 139.093-139.52 139.093 139.52c7.081 8.13 17.451 13.239 29.013 13.239 21.214 0 38.412-17.198 38.412-38.412 0-9.652-3.56-18.472-9.438-25.219l0.039 0.046-3.413-4.267-139.52-139.093 139.52-139.093 3.413-4.267c4.795-6.338 7.68-14.352 7.68-23.040 0-21.208-17.192-38.4-38.4-38.4-8.688 0-16.702 2.885-23.137 7.75l0.097-0.070-4.267 3.413-139.093 139.52-139.093-139.52c-7.081-8.13-17.451-13.239-29.013-13.239-21.214 0-38.412 17.198-38.412 38.412 0 9.652 3.56 18.472 9.438 25.219l-0.039-0.046 3.413 4.267 139.52 139.093-139.52 139.093-3.413 4.267c-4.794 6.386-7.677 14.445-7.677 23.177 0 10.581 4.232 20.173 11.096 27.176l-0.006-0.006zM512 832c-212.077 0-384-171.923-384-384s171.923-384 384-384c212.077 0 384 171.923 384 384v0c0 212.077-171.923 384-384 384v0zM512 908.8c254.493 0 460.8-206.307 460.8-460.8s-206.307-460.8-460.8-460.8c-254.493 0-460.8 206.307-460.8 460.8v0c0 254.493 206.307 460.8 460.8 460.8v0z" />
<glyph unicode="&#xe917;" glyph-name="download" d="M512 908.8c19.367-0.044 35.364-14.418 37.95-33.079l0.023-0.201v-555.52l203.947 194.133c6.797 6.206 15.881 10.007 25.853 10.007 21.208 0 38.4-17.192 38.4-38.4 0-8.586-2.818-16.514-7.579-22.909l0.073 0.102-3.84-4.267-268.8-256c-6.827-6.625-16.152-10.709-26.431-10.709-8.156 0-15.712 2.572-21.901 6.948l0.119-0.080-4.693 3.84-268.8 256c-7.739 7.051-12.577 17.171-12.577 28.421 0 21.208 17.192 38.4 38.4 38.4 8.59 0 16.522-2.821 22.919-7.587l-0.102 0.073 4.267-3.84 204.373-194.133v550.4c0 21.208 17.192 38.4 38.4 38.4v0zM934.4 243.2c19.367-0.044 35.364-14.418 37.95-33.079l0.023-0.201v-76.8c-0.616-78.182-62.265-141.767-139.612-145.481l-0.335-0.013h-632.747c-0.351-0.003-0.765-0.005-1.18-0.005-77.845 0-141.577 60.427-146.848 136.933l-0.025 0.458v79.787c0.316 20.965 17.385 37.839 38.396 37.839 19.203 0 35.114-14.095 37.95-32.504l0.027-0.215v-76.8c0.359-36.561 28.703-66.389 64.618-69.106l0.235-0.014h631.467c0.407-0.008 0.887-0.013 1.368-0.013 36.114 0 65.914 27.028 70.277 61.96l0.035 0.347v78.507c0 21.208 17.192 38.4 38.4 38.4v0z" />
<glyph unicode="&#xe918;" glyph-name="edit" d="M805.973 826.027c-7.99 3.757-17.354 5.95-27.229 5.95-13.015 0-25.14-3.809-35.322-10.372l0.258 0.155-5.547-4.267-12.8-14.507 139.093-141.653 16.64 16.213c9.194 10.896 14.781 25.095 14.781 40.599 0 6.678-1.037 13.113-2.957 19.155l0.123-0.447-2.56 5.12-2.987 4.693-76.8 76.373zM668.16 749.653l-480.853-466.347 147.627-147.627 475.733 472.32zM158.293 203.52l-21.333-128 119.040 28.587zM682.667 872.107c24.53 23.129 57.686 37.344 94.163 37.344 30.358 0 58.416-9.846 81.155-26.52l-0.384 0.269 6.4-5.547 77.227-76.373c19.565-22.807 31.475-52.679 31.475-85.333s-11.91-62.526-31.623-85.51l0.148 0.176-5.973-5.973-571.733-569.173c-3.735-3.753-8.303-6.673-13.405-8.458l-0.248-0.076h-5.12l-246.613-58.88c-2.44-0.545-5.241-0.858-8.116-0.858-21.443 0-38.827 17.383-38.827 38.827 0 0.302 0.003 0.602 0.010 0.902l-0.001-0.045v5.12l42.667 256c1.008 6.866 3.74 12.957 7.739 17.998l-0.059-0.078 3.413 3.413z" />
<glyph unicode="&#xe919;" glyph-name="email" d="M614.4 422.4c0.146 0.002 0.319 0.003 0.492 0.003 7.781 0 15.002-2.394 20.968-6.485l-0.126 0.082 4.693-3.84 166.4-153.6c8.234-7.010 13.422-17.384 13.422-28.969 0-9.697-3.634-18.544-9.615-25.255l0.033 0.038c-7.035-7.576-17.049-12.302-28.168-12.302-8.13 0-15.671 2.527-21.878 6.838l0.126-0.083-4.267 3.413-157.013 143.36h-172.8l-157.44-143.36c-6.602-5.895-15.36-9.498-24.96-9.498s-18.358 3.603-24.997 9.53l0.037-0.032-5.973 2.133c-5.895 6.602-9.498 15.36-9.498 24.96s3.603 18.358 9.53 24.997l-0.032-0.037 3.84 4.267 166.827 153.6c5.531 5.003 12.515 8.498 20.246 9.781l0.234 0.032h209.92zM512 772.693l-354.987-243.627 123.733-102.827c6.964-6.951 11.272-16.561 11.272-27.178 0-21.208-17.192-38.4-38.4-38.4-5.625 0-10.967 1.209-15.781 3.382l0.242-0.098-4.693 3.413-105.387 86.187v-322.56c0.144-6.263 3.915-11.611 9.287-14.040l0.099-0.040h741.973c0.038 0 0.084-0.001 0.13-0.001 7.673 0 14.133 5.194 16.057 12.257l0.027 0.117v324.267l-103.253-85.333c-6.658-5.695-15.371-9.162-24.893-9.162-21.208 0-38.4 17.192-38.4 38.4 0 9.948 3.783 19.012 9.988 25.833l-0.028-0.031 3.84 3.84 123.733 102.827zM490.24 850.773c6.035 4.319 13.565 6.905 21.699 6.905 6.085 0 11.832-1.448 16.915-4.017l-0.215 0.098 5.12-2.987 422.4-289.707c8.665-5.898 14.678-15.139 16.19-25.827l0.023-0.199v-404.053c-0.288-48.44-37.559-88.084-84.989-92.136l-0.345-0.024h-742.4c-0.094 0-0.206-0.001-0.318-0.001-48.667 0-88.604 37.376-92.672 84.989l-0.024 0.345v405.333c0.131 11.105 4.853 21.082 12.353 28.141l0.020 0.019 4.267 3.413z" />
<glyph unicode="&#xe91a;" glyph-name="error" d="M512 742.4c19.367-0.044 35.364-14.418 37.95-33.079l0.023-0.201v-312.32c-0.316-20.965-17.385-37.839-38.396-37.839-19.203 0-35.114 14.095-37.95 32.504l-0.027 0.215v312.32c0 21.208 17.192 38.4 38.4 38.4v0zM512 294.4c28.277 0 51.2-22.923 51.2-51.2s-22.923-51.2-51.2-51.2c-28.277 0-51.2 22.923-51.2 51.2v0c0 28.277 22.923 51.2 51.2 51.2v0zM526.080 832h-14.080c-212.815-4.071-383.797-177.447-384-390.807v-0.020c0-0.018 0-0.040 0-0.062 0-208.307 168.866-377.173 377.173-377.173 2.4 0 4.796 0.022 7.185 0.067l-0.359-0.005c212.815 4.071 383.797 177.447 384 390.807v0.020c-0.196 205.693-164.829 372.869-369.519 377.167l-0.401 0.007zM972.8 456.107c-0.196-256.056-205.413-464.115-460.352-468.9l-0.448-0.007c-2.031-0.033-4.428-0.051-6.828-0.051-250.291 0-453.273 202.551-453.972 452.678v0.066c0.196 256.056 205.413 464.115 460.352 468.9l0.448 0.007c2.031 0.033 4.428 0.051 6.828 0.051 250.291 0 453.273-202.551 453.972-452.678v-0.066z" />
<glyph unicode="&#xe91b;" glyph-name="expand-vertical" d="M547.84 901.12l4.267-3.413 128-128c8.13-7.081 13.239-17.451 13.239-29.013 0-21.214-17.198-38.412-38.412-38.412-9.652 0-18.472 3.56-25.219 9.438l0.046-0.039-4.267 3.413-62.293 62.72v-213.333h371.2c0.637 0.037 1.383 0.059 2.133 0.059 21.476 0 38.885-17.41 38.885-38.885 0-20.725-16.214-37.664-36.649-38.822l-0.103-0.005h-849.067c-19.807 1.681-35.247 18.172-35.247 38.27 0 18.582 13.199 34.082 30.734 37.635l0.246 0.042h401.067v213.333l-62.293-61.013c-6.997-6.858-16.589-11.090-27.169-11.090-8.732 0-16.792 2.883-23.278 7.749l0.1-0.072-4.267 3.413c-6.858 6.997-11.090 16.589-11.090 27.169 0 8.732 2.883 16.792 7.749 23.278l-0.072-0.1 3.413 4.267 128 128c6.997 6.858 16.589 11.090 27.169 11.090 8.732 0 16.792-2.883 23.278-7.749l-0.1 0.072zM934.4 409.6c20.643-0.718 37.105-17.626 37.105-38.378 0-19.246-14.158-35.184-32.627-37.969l-0.212-0.026h-375.467v-213.333l62.293 62.72 4.267 3.413c6.633 5.614 15.285 9.027 24.734 9.027 21.208 0 38.4-17.192 38.4-38.4 0-10.087-3.889-19.266-10.25-26.118l0.022 0.024-3.413-4.267-128-128-4.267-3.413c-6.235-4.664-14.097-7.467-22.613-7.467s-16.379 2.804-22.713 7.539l0.1-0.071-5.12 3.84-128 128-3.413 4.267c-4.664 6.235-7.467 14.097-7.467 22.613s2.804 16.379 7.539 22.713l-0.071-0.1 3.84 5.12 4.267 3.413c6.235 4.664 14.097 7.467 22.613 7.467s16.379-2.804 22.713-7.539l-0.1 0.071 5.12-3.84 62.293-62.72v213.333h-396.373c-0.637-0.037-1.383-0.059-2.133-0.059-21.476 0-38.885 17.41-38.885 38.885 0 20.725 16.214 37.664 36.649 38.822l0.103 0.005h849.067z" />
<glyph unicode="&#xe91c;" glyph-name="fullscreen" d="M934.4 908.8h4.267c17.16-2.255 30.598-15.693 32.833-32.661l0.021-0.192v-317.867c-2.255-17.16-15.693-30.598-32.661-32.833l-0.192-0.021h-10.24c-16.981 2.436-30.215 15.815-32.406 32.662l-0.020 0.191v273.92h-273.92c-18.61 2.876-32.692 18.78-32.692 37.973s14.081 35.098 32.476 37.946l0.215 0.027h312.32zM396.8 908.8c0.766 0.054 1.659 0.085 2.56 0.085 21.255 0 38.485-17.23 38.485-38.485 0-20.354-15.801-37.018-35.806-38.393l-0.12-0.007h-273.92v-268.8c-0.044-19.367-14.418-35.364-33.079-37.95l-0.201-0.023h-5.12c-19.367 0.044-35.364 14.418-37.95 33.079l-0.023 0.201v311.893c0.073 19.495 14.662 35.561 33.517 37.954l0.19 0.020h311.467zM934.4 371.2c19.367-0.044 35.364-14.418 37.95-33.079l0.023-0.201v-312.32c-0.044-19.367-14.418-35.364-33.079-37.95l-0.201-0.023h-311.893c-20.965 0.316-37.839 17.385-37.839 38.396 0 19.203 14.095 35.114 32.504 37.95l0.215 0.027h273.92v268.8c0.044 19.367 14.418 35.364 33.079 37.95l0.201 0.023zM89.6 371.2h5.12c17.16-2.255 30.598-15.693 32.833-32.661l0.021-0.192v-274.347h274.347c18.61-2.876 32.692-18.78 32.692-37.973s-14.081-35.098-32.476-37.946l-0.215-0.027h-316.587c-17.644 1.924-31.556 15.69-33.688 33.097l-0.018 0.183v316.587c2.337 17.41 16.187 30.969 33.539 32.839l0.168 0.015z" />
<glyph unicode="&#xe91d;" glyph-name="eye-hide" d="M512 640c21.208 0 38.4-17.192 38.4-38.4s-17.192-38.4-38.4-38.4v0c-63.623 0-115.2-51.577-115.2-115.2v0c0-21.208-17.192-38.4-38.4-38.4s-38.4 17.192-38.4 38.4v0c0 0.127 0 0.277 0 0.427 0 105.803 85.77 191.573 191.573 191.573 0.15 0 0.3 0 0.45-0.001h-0.023zM859.307 795.307c6.509-6.866 10.512-16.164 10.512-26.397 0-8.341-2.659-16.061-7.177-22.358l0.079 0.115-3.413-4.267-640-640c-6.389-4.922-14.506-7.888-23.315-7.888-21.208 0-38.4 17.192-38.4 38.4 0 5.966 1.361 11.614 3.788 16.651l-0.1-0.23 3.413 4.267 640 640c7.090 7.463 17.087 12.105 28.168 12.105 10.228 0 19.533-3.955 26.468-10.42l-0.023 0.021zM610.56 733.44c18.304-3.151 32.055-18.906 32.055-37.872 0-21.208-17.192-38.4-38.4-38.4-3.354 0-6.608 0.43-9.709 1.238l0.267-0.059c-128 26.453-247.893-18.773-359.253-111.36-30.981-26.447-58.887-54.352-84.472-84.3l-0.862-1.033-11.947-13.653 8.96-10.667 5.547-6.4c28.45-32.143 58.717-61.194 91.189-87.643l1.398-1.103c8.692-7.118 14.196-17.849 14.196-29.867 0-21.272-17.244-38.516-38.516-38.516-9.255 0-17.747 3.264-24.388 8.703l0.068-0.054c-37.015 30.483-70.201 62.453-100.762 96.809l-0.784 0.898-9.813 15.36-14.933 17.92-9.813 13.227c-4.054 5.993-6.471 13.381-6.471 21.333s2.418 15.341 6.558 21.469l-0.087-0.136 11.093 14.507 10.667 13.227 12.8 14.933c28.239 34.325 58.124 65.021 90.373 93.072l0.934 0.795c127.573 106.24 270.933 159.573 424.107 127.573zM665.6 486.4c21.208 0 38.4-17.192 38.4-38.4v0c0-106.039-85.961-192-192-192v0c-20.965 0.316-37.839 17.385-37.839 38.396 0 19.203 14.095 35.114 32.504 37.95l0.215 0.027h5.12c0.068 0 0.149 0 0.229 0 60.836 0 110.617 47.332 114.526 107.179l0.018 0.341v8.107c0 0.001 0 0.002 0 0.002 0 21.208 17.192 38.4 38.4 38.4 0.15 0 0.3-0.001 0.449-0.003h-0.023zM831.573 614.4c49.43-43.377 93.298-90.899 131.818-142.638l1.728-2.428c4.766-6.421 7.629-14.503 7.629-23.253s-2.863-16.832-7.704-23.359l0.075 0.106c-170.667-226.56-354.56-305.92-549.12-256-18.596 2.889-32.661 18.786-32.661 37.969 0 21.208 17.192 38.4 38.4 38.4 4.517 0 8.851-0.78 12.876-2.212l-0.268 0.083c150.613-37.547 292.267 16.213 434.347 185.173l17.067 21.333-9.387 11.947c-25.374 31.131-51.902 59.012-80.405 84.746l-0.661 0.588-13.653 11.947c-8.269 7.092-13.474 17.551-13.474 29.227 0 21.227 17.208 38.434 38.434 38.434 9.551 0 18.289-3.484 25.012-9.251l-0.052 0.043z" />
<glyph unicode="&#xe91e;" glyph-name="eye" d="M512 563.2c-63.623 0-115.2-51.577-115.2-115.2s51.577-115.2 115.2-115.2c63.623 0 115.2 51.577 115.2 115.2v0c0 63.623-51.577 115.2-115.2 115.2v0zM512 640c106.039 0 192-85.961 192-192s-85.961-192-192-192c-106.039 0-192 85.961-192 192v0c0 0.127 0 0.277 0 0.427 0 105.803 85.77 191.573 191.573 191.573 0.15 0 0.3 0 0.45-0.001h-0.023zM885.76 448l-3.84 5.12c-219.733 269.227-437.333 263.68-645.547 92.587-25.323-21.090-48.159-42.71-69.56-65.685l-0.413-0.448-15.36-17.067-12.8-14.507 12.8-14.507c26.39-29.877 54.279-56.955 84.107-81.781l1.226-0.992 10.667-8.533 20.907-16.213c194.987-144.213 397.653-139.093 602.453 103.253l11.093 13.227zM187.307 603.733c246.187 203.093 521.813 202.667 777.813-133.12 4.795-6.338 7.68-14.352 7.68-23.040s-2.885-16.702-7.75-23.137l0.070 0.097c-256-335.36-531.627-334.933-777.387-132.267-28.342 22.578-53.678 45.615-77.442 70.181l-0.211 0.219-17.067 18.773-15.787 18.347-11.947 15.36-6.827 8.96c-4.276 5.923-6.839 13.329-6.839 21.333s2.563 15.41 6.913 21.442l-0.074-0.108 2.987 4.267 8.107 10.24 23.467 28.16c29.354 34.114 60.179 64.939 93.155 93.336l1.138 0.958z" />
<glyph unicode="&#xe91f;" glyph-name="file" d="M640 781.227v-102.827h108.373zM524.8 563.2c20.965-0.316 37.839-17.385 37.839-38.396 0-19.203-14.095-35.114-32.504-37.95l-0.215-0.027h-184.32c-19.807 1.681-35.247 18.172-35.247 38.27 0 18.582 13.199 34.082 30.734 37.635l0.246 0.042h183.467zM678.4 409.6c20.643-0.718 37.105-17.626 37.105-38.378 0-19.246-14.158-35.184-32.627-37.969l-0.212-0.026h-337.067c-19.807 1.681-35.247 18.172-35.247 38.27 0 18.582 13.199 34.082 30.734 37.635l0.246 0.042h337.067zM678.4 256c20.643-0.718 37.105-17.626 37.105-38.378 0-19.246-14.158-35.184-32.627-37.969l-0.212-0.026h-337.067c-19.807 1.681-35.247 18.172-35.247 38.27 0 18.582 13.199 34.082 30.734 37.635l0.246 0.042h337.067zM563.2 832h-332.8v-768h563.2v537.6h-192c-19.367 0.044-35.364 14.418-37.95 33.079l-0.023 0.201v197.12zM605.867 908.8c6.832-0.003 13.017-2.774 17.493-7.253v0l237.653-225.707c4.954-4.579 8.060-11.096 8.107-18.338v-619.102c0-28.277-22.923-51.2-51.2-51.2v0h-613.12c-28.277 0-51.2 22.923-51.2 51.2v0 819.2c0 28.277 22.923 51.2 51.2 51.2v0z" />
<glyph unicode="&#xe920;" glyph-name="information" d="M512 704c28.277 0 51.2-22.923 51.2-51.2s-22.923-51.2-51.2-51.2c-28.277 0-51.2 22.923-51.2 51.2v0c0 28.277 22.923 51.2 51.2 51.2v0zM524.8 563.2c19.367-0.044 35.364-14.418 37.95-33.079l0.023-0.201v-273.92h51.2c20.965-0.316 37.839-17.385 37.839-38.396 0-19.203-14.095-35.114-32.504-37.95l-0.215-0.027h-209.493c-20.965 0.316-37.839 17.385-37.839 38.396 0 19.203 14.095 35.114 32.504 37.95l0.215 0.027h81.92v230.4h-64c-0.102-0.001-0.222-0.002-0.343-0.002-19.403 0-35.444 14.39-38.035 33.080l-0.023 0.201v5.12c0.044 19.367 14.418 35.364 33.079 37.95l0.201 0.023h107.52zM512 832c-212.077 0-384-171.923-384-384s171.923-384 384-384c212.077 0 384 171.923 384 384v0c0 212.077-171.923 384-384 384v0zM512 908.8c254.493 0 460.8-206.307 460.8-460.8s-206.307-460.8-460.8-460.8c-254.493 0-460.8 206.307-460.8 460.8v0c0 254.493 206.307 460.8 460.8 460.8v0z" />
<glyph unicode="&#xe921;" glyph-name="knowledge-base" d="M768 716.8c20.965-0.316 37.839-17.385 37.839-38.396 0-19.203-14.095-35.114-32.504-37.95l-0.215-0.027h-363.52c-20.965 0.316-37.839 17.385-37.839 38.396 0 19.203 14.095 35.114 32.504 37.95l0.215 0.027h363.52zM768 563.2c20.965-0.316 37.839-17.385 37.839-38.396 0-19.203-14.095-35.114-32.504-37.95l-0.215-0.027h-363.52c-20.965 0.316-37.839 17.385-37.839 38.396 0 19.203 14.095 35.114 32.504 37.95l0.215 0.027h363.52zM614.4 409.6c20.965-0.316 37.839-17.385 37.839-38.396 0-19.203-14.095-35.114-32.504-37.95l-0.215-0.027h-209.92c-20.965 0.316-37.839 17.385-37.839 38.396 0 19.203 14.095 35.114 32.504 37.95l0.215 0.027h209.92zM896 832h-614.4v-614.4h614.4zM204.8 704h-76.8v-640h640v76.8h-512c-28.277 0-51.2 22.923-51.2 51.2v0zM921.6 908.8c28.277 0 51.2-22.923 51.2-51.2v-665.6c0-28.277-22.923-51.2-51.2-51.2v0h-76.8v-102.4c0.001-0.090 0.001-0.197 0.001-0.304 0-26.088-19.675-47.58-44.995-50.448l-0.232-0.021h-697.173c-0.090-0.001-0.197-0.001-0.304-0.001-26.088 0-47.58 19.675-50.448 44.995l-0.021 0.232v696.747c-0.001 0.105-0.001 0.229-0.001 0.352 0 25.937 19.448 47.331 44.557 50.397l0.245 0.024h108.373v77.227c0 28.277 22.923 51.2 51.2 51.2v0z" />
<glyph unicode="&#xe922;" glyph-name="megaphone" d="M896 750.933l-768-256v-93.867l768-256zM281.6 268.8v-45.227c2.107-60.318 51.511-108.415 112.149-108.415 1.073 0 2.142 0.015 3.208 0.045l-0.157-0.003c1.881-0.113 4.080-0.178 6.294-0.178 49.213 0 90.97 31.923 105.693 76.192l0.227 0.786zM972.8 25.6c0.038-0.637 0.059-1.383 0.059-2.133 0-21.24-17.219-38.459-38.459-38.459-20.49 0-37.237 16.024-38.395 36.224l-0.005 0.102v42.667l-314.027 104.533c-25.208-76.214-95.807-130.234-179.022-130.234-2.163 0-4.318 0.037-6.464 0.109l0.312-0.008c-1.026-0.020-2.236-0.032-3.449-0.032-99.51 0-181.019 77.073-188.089 174.78l-0.035 0.611v80.64l-77.227 25.6v-25.6c-0.316-20.965-17.385-37.839-38.396-37.839-19.203 0-35.114 14.095-37.95 32.504l-0.027 0.215v312.32c0.316 20.965 17.385 37.839 38.396 37.839 19.203 0 35.114-14.095 37.95-32.504l0.027-0.215v-30.72l768 256v38.4c0.718 20.643 17.626 37.105 38.378 37.105 19.246 0 35.184-14.158 37.969-32.627l0.026-0.212v-849.067z" />
<glyph unicode="&#xe923;" glyph-name="minus" d="M934.4 486.4c20.643-0.718 37.105-17.626 37.105-38.378 0-19.246-14.158-35.184-32.627-37.969l-0.212-0.026h-849.067c-19.807 1.681-35.247 18.172-35.247 38.27 0 18.582 13.199 34.082 30.734 37.635l0.246 0.042h849.067z" />
<glyph unicode="&#xe924;" glyph-name="more" d="M179.2 524.8h10.24c37.781-5.227 66.56-37.31 66.56-76.114 0-42.415-34.385-76.8-76.8-76.8s-76.8 34.385-76.8 76.8c0 38.804 28.779 70.887 66.158 76.069l0.402 0.046zM512 524.8h10.24c37.781-5.227 66.56-37.31 66.56-76.114 0-42.415-34.385-76.8-76.8-76.8s-76.8 34.385-76.8 76.8c0 38.804 28.779 70.887 66.158 76.069l0.402 0.046zM844.8 524.8h10.24c37.781-5.227 66.56-37.31 66.56-76.114 0-42.415-34.385-76.8-76.8-76.8s-76.8 34.385-76.8 76.8c0 38.804 28.779 70.887 66.158 76.069l0.402 0.046z" />
<glyph unicode="&#xe925;" glyph-name="most-view-articles" d="M486.4 832h-204.8v-263.253l77.653 65.28c6.522 5.611 15.073 9.027 24.421 9.027 5.361 0 10.46-1.124 15.073-3.148l-0.241 0.094 5.12-2.56 5.12-3.413 77.653-65.28zM780.8 371.2c20.965-0.316 37.839-17.385 37.839-38.396 0-19.203-14.095-35.114-32.504-37.95l-0.215-0.027h-542.72c-20.965 0.316-37.839 17.385-37.839 38.396 0 19.203 14.095 35.114 32.504 37.95l0.215 0.027h542.72zM780.8 217.6c20.965-0.316 37.839-17.385 37.839-38.396 0-19.203-14.095-35.114-32.504-37.95l-0.215-0.027h-542.72c-20.965 0.316-37.839 17.385-37.839 38.396 0 19.203 14.095 35.114 32.504 37.95l0.215 0.027h542.72zM204.8 755.2h-76.8v-691.2h768v691.2h-332.8v-268.8c-0.032-21.184-17.212-38.344-38.4-38.344-7.595 0-14.675 2.205-20.635 6.010l0.155-0.092-4.267 2.987-116.053 97.28-116.053-97.28c-6.646-5.657-15.331-9.099-24.819-9.099-17.614 0-32.458 11.859-36.983 28.028l-0.065 0.27v279.040zM524.8 908.8c19.367-0.044 35.364-14.418 37.95-33.079l0.023-0.201v-43.52h371.2c19.367-0.044 35.364-14.418 37.95-33.079l0.023-0.201v-773.12c-0.044-19.367-14.418-35.364-33.079-37.95l-0.201-0.023h-849.067c-19.495 0.073-35.561 14.662-37.954 33.517l-0.020 0.19v772.267c-0.001 0.085-0.001 0.187-0.001 0.288 0 19.554 14.615 35.694 33.518 38.093l0.19 0.020h119.467v38.4c0.044 19.367 14.418 35.364 33.079 37.95l0.201 0.023h286.72z" />
<glyph unicode="&#xe926;" glyph-name="phone" d="M278.613 817.067l94.293-93.867c9.050-9.228 14.636-21.882 14.636-35.84s-5.586-26.612-14.644-35.848l0.008 0.008-31.573-32.853c-7.045-7.029-11.404-16.749-11.404-27.486 0-9.16 3.172-17.579 8.477-24.218l-0.060 0.078c89.582-108.114 185.857-204.389 290.374-291.072l3.6-2.901c6.299-4.493 14.153-7.184 22.636-7.184 10.817 0 20.611 4.375 27.711 11.452l-0.001-0.001 31.147 31.573c9.114 9.127 21.711 14.772 35.627 14.772s26.513-5.646 35.626-14.772l94.294-94.294c9.231-9.065 14.952-21.678 14.952-35.627s-5.721-26.561-14.945-35.619l-51.634-51.634c-17.076-17.137-40.699-27.741-66.799-27.741-19.467 0-37.557 5.899-52.578 16.008l0.337-0.214c-225.596 151.777-413.722 340.447-560.293 559.296l-4.614 7.318c-9.895 14.684-15.795 32.774-15.795 52.241 0 26.1 10.604 49.723 27.738 66.796l51.63 51.63c9.065 9.231 21.678 14.952 35.627 14.952s26.561-5.721 35.619-14.945l0.007-0.007zM153.173 871.68l-51.627-52.053c-31.171-30.932-50.468-73.791-50.468-121.158 0-35.311 10.724-68.118 29.093-95.341l-0.385 0.606c157.28-234.855 353.094-430.669 580.401-583.179l7.546-4.768c26.672-18.089 59.572-28.879 94.992-28.879 47.452 0 90.38 19.366 121.314 50.625l0.014 0.015 51.627 51.627c22.751 23.092 36.799 54.812 36.799 89.813s-14.049 66.721-36.815 89.829l0.015-0.016-94.293 93.867-6.827 6.4c-22.218 19.067-51.321 30.674-83.136 30.674-35.138 0-66.97-14.159-90.1-37.083l-6.391-6.391c-75.433 64.483-143.72 131.417-207.229 202.701l-1.837 2.099-24.32 28.587 5.12 7.68c22.876 23.114 37.010 54.92 37.010 90.027s-14.133 66.912-37.021 90.037l0.011-0.011-93.44 94.293c-23.114 22.876-54.92 37.010-90.027 37.010s-66.912-14.133-90.037-37.021l0.011 0.011z" />
<glyph unicode="&#xe927;" glyph-name="plus" d="M512 908.8c19.367-0.044 35.364-14.418 37.95-33.079l0.023-0.201v-389.12h384c20.8-0.524 37.462-17.511 37.462-38.389 0-19.22-14.121-35.143-32.555-37.958l-0.213-0.027h-388.267v-384c-0.316-20.965-17.385-37.839-38.396-37.839-19.203 0-35.114 14.095-37.95 32.504l-0.027 0.215v388.693h-384c-20.8 0.524-37.462 17.511-37.462 38.389 0 19.22 14.121 35.143 32.555 37.958l0.213 0.027h388.267v384c-0.002 0.127-0.002 0.277-0.002 0.427 0 21.208 17.192 38.4 38.4 38.4 0.001 0 0.002 0 0.003 0v0z" />
<glyph unicode="&#xe928;" glyph-name="popout" d="M934.4 908.8c19.367-0.044 35.364-14.418 37.95-33.079l0.023-0.201v-389.12c-0.316-20.965-17.385-37.839-38.396-37.839-19.203 0-35.114 14.095-37.95 32.504l-0.027 0.215v298.667l-318.293-318.72c-7.081-8.13-17.451-13.239-29.013-13.239-21.214 0-38.412 17.198-38.412 38.412 0 9.652 3.56 18.472 9.438 25.219l-0.039-0.046 3.413 4.267 318.72 316.16h-291.413c-0.102-0.001-0.222-0.002-0.343-0.002-19.403 0-35.444 14.39-38.035 33.080l-0.023 0.201v5.12c0.044 19.367 14.418 35.364 33.079 37.95l0.201 0.023h389.12zM89.6 755.2h301.227c20.965-0.316 37.839-17.385 37.839-38.396 0-19.203-14.095-35.114-32.504-37.95l-0.215-0.027h-5.547l-262.4-0.427v-614.4h614.4v213.333c0.044 19.367 14.418 35.364 33.079 37.95l0.201 0.023h5.12c19.475-0.015 35.593-14.365 38.374-33.068l0.026-0.212v-256c0.001-0.103 0.002-0.225 0.002-0.347 0-19.167-14.201-35.017-32.655-37.604l-0.2-0.023h-696.747c-19.367 0.044-35.364 14.418-37.95 33.079l-0.023 0.201v695.467c0.073 19.495 14.662 35.561 33.517 37.954l0.19 0.020z" />
<glyph unicode="&#xe929;" glyph-name="product-info" d="M628.053 832h-244.053v-614.4h409.6v434.347zM645.12 908.8c0.054 0 0.119 0 0.184 0 9.177 0 17.602-3.219 24.207-8.589l-0.071 0.056 3.84-3.84 186.88-203.52c4.996-5.386 8.491-12.23 9.781-19.824l0.032-0.229v-493.653c-0.044-19.367-14.418-35.364-33.079-37.95l-0.201-0.023h-491.093c-19.367 0.044-35.364 14.418-37.95 33.079l-0.023 0.201v695.893c0.073 19.495 14.662 35.561 33.517 37.954l0.19 0.020h304.64zM192 780.8c19.625-0.1 35.761-14.906 37.957-33.955l0.017-0.178v-682.667h474.027c19.367-0.044 35.364-14.418 37.95-33.079l0.023-0.201v-5.12c-0.044-19.367-14.418-35.364-33.079-37.95l-0.201-0.023h-516.693c-19.495 0.073-35.561 14.662-37.954 33.517l-0.020 0.19v721.067c0 0.001 0 0.002 0 0.002 0 21.058 16.95 38.157 37.951 38.397h0.023z" />
<glyph unicode="&#xe92a;" glyph-name="home" d="M520.107 828.587l371.2-295.253c2.868-2.205 4.698-5.637 4.698-9.496 0-0.112-0.002-0.223-0.005-0.334v0.016-446.293c0-7.069-5.731-12.8-12.8-12.8v0h-179.2c-7.069 0-12.8 5.731-12.8 12.8v192c0 98.969-80.231 179.2-179.2 179.2s-179.2-80.231-179.2-179.2v0-192.427c0-7.069-5.731-12.8-12.8-12.8h-179.2c-7.069 0-12.8 5.731-12.8 12.8v0 446.72c-0.003 0.095-0.004 0.206-0.004 0.317 0 3.859 1.83 7.291 4.669 9.475l0.028 0.021 371.2 295.253c2.257 1.606 5.069 2.568 8.107 2.568s5.85-0.962 8.15-2.597l-0.043 0.029zM456.107 888.747l-370.773-295.253c-20.611-16.398-33.707-41.478-33.707-69.618 0-0.125 0-0.25 0.001-0.375v0.019-446.293c0-49.485 40.115-89.6 89.6-89.6h178.773c49.485 0 89.6 40.115 89.6 89.6v0 192.427c0 56.554 45.846 102.4 102.4 102.4s102.4-45.846 102.4-102.4v0-192c0-49.485 40.115-89.6 89.6-89.6v0h179.2c49.485 0 89.6 40.115 89.6 89.6v0 445.867c0 0.006 0 0.014 0 0.021 0 28.33-13.274 53.559-33.942 69.808l-0.191 0.145-371.2 295.253c-15.138 12.090-34.555 19.401-55.68 19.401s-40.542-7.311-55.86-19.54l0.18 0.139z" />
<glyph unicode="&#xe92b;" glyph-name="push-left" d="M322.133 730.027l-4.267-3.84-256-268.8c-6.625-6.827-10.709-16.152-10.709-26.431 0-8.156 2.572-15.712 6.948-21.901l-0.080 0.119 3.84-4.693 256-268.8c7.051-7.739 17.171-12.577 28.421-12.577 21.208 0 38.4 17.192 38.4 38.4 0 8.59-2.821 16.522-7.587 22.919l0.073-0.102-3.84 4.267-194.133 203.947h550.4c20.965 0.316 37.839 17.385 37.839 38.396 0 19.203-14.095 35.114-32.504 37.95l-0.215 0.027h-555.52l194.133 204.373c6.206 6.797 10.007 15.881 10.007 25.853 0 21.208-17.192 38.4-38.4 38.4-8.586 0-16.514-2.818-22.909-7.579l0.102 0.073zM934.4 908.8c-0.071 0-0.154 0.001-0.238 0.001-19.705 0-35.943-14.842-38.146-33.956l-0.017-0.178v-849.067c0.316-20.965 17.385-37.839 38.396-37.839 19.203 0 35.114 14.095 37.95 32.504l0.027 0.215v849.92c0 0.001 0 0.002 0 0.002 0 21.058-16.95 38.157-37.951 38.397h-0.023z" />
<glyph unicode="&#xe92c;" glyph-name="push-right" d="M701.867 730.027l4.267-3.84 256-268.8c6.625-6.827 10.709-16.152 10.709-26.431 0-8.156-2.572-15.712-6.948-21.901l0.080 0.119-3.84-4.693-256-268.8c-7.051-7.739-17.171-12.577-28.421-12.577-21.208 0-38.4 17.192-38.4 38.4 0 8.59 2.821 16.522 7.587 22.919l-0.073-0.102 3.84 4.267 194.133 203.947h-550.4c-20.965 0.316-37.839 17.385-37.839 38.396 0 19.203 14.095 35.114 32.504 37.95l0.215 0.027h554.667l-193.28 204.373c-6.206 6.797-10.007 15.881-10.007 25.853 0 21.208 17.192 38.4 38.4 38.4 8.586 0 16.514-2.818 22.909-7.579l-0.102 0.073zM89.6 908.8c0.071 0 0.154 0.001 0.238 0.001 19.705 0 35.943-14.842 38.146-33.956l0.017-0.178v-849.067c-0.718-20.643-17.626-37.105-38.378-37.105-19.246 0-35.184 14.158-37.969 32.627l-0.026 0.212v849.067c0 0.001 0 0.002 0 0.002 0 21.058 16.95 38.157 37.951 38.397h0.023z" />
<glyph unicode="&#xe92d;" glyph-name="rating-line" d="M512 761.173l74.24-197.973v-4.693c6.637-12.028 19.235-20.043 33.705-20.053h208.641l-182.613-157.013c-5.704-6.715-9.173-15.484-9.173-25.063 0-4.31 0.702-8.457 1.999-12.331l-0.080 0.274 72.107-216.32-178.347 130.56-4.693 2.987c-5.183 2.827-11.352 4.489-17.909 4.489-8.521 0-16.387-2.807-22.723-7.546l0.099 0.071-176.213-130.56 72.96 216.32v5.547c0.379 2.004 0.596 4.309 0.596 6.664 0 11.513-5.182 21.816-13.34 28.703l-0.056 0.046-177.92 153.173h208.64c16.28 0.022 30.183 10.172 35.75 24.485l0.090 0.262zM375.040 615.253h-289.707c-18.655-3.055-32.716-19.057-32.716-38.343 0-11.551 5.044-21.924 13.050-29.036l0.040-0.035 237.653-203.52-103.253-306.347v-5.12c-0.423-2.138-0.664-4.597-0.664-7.113 0-21.208 17.192-38.4 38.4-38.4 8.605 0 16.549 2.831 22.952 7.611l-0.101-0.072 251.307 185.173 256.853-188.16c5.401-3.078 11.867-4.892 18.756-4.892 21.208 0 38.4 17.192 38.4 38.4 0 4.503-0.775 8.826-2.2 12.841l0.083-0.269-101.973 305.92 237.653 203.52 3.84 3.84c5.763 6.733 9.27 15.546 9.27 25.177 0 21.252-17.075 38.516-38.254 38.823h-285.469l-101.12 268.8c-5.698 14.52-19.59 24.614-35.84 24.614s-30.142-10.094-35.75-24.353l-0.090-0.261z" />
<glyph unicode="&#xe92e;" glyph-name="reload" d="M514.56 806.4c0.153 0 0.335 0 0.516 0 92.271 0 176.493-34.458 240.501-91.209l-0.377 0.328c7.951-7.090 12.933-17.363 12.933-28.8 0-21.281-17.252-38.533-38.533-38.533-9.845 0-18.827 3.692-25.638 9.766l0.038-0.033c-50.025 44.627-116.371 71.899-189.086 71.899-151.246 0-274.935-117.985-284.048-266.938l-0.039-0.801 59.307 73.813c7.076 8.066 17.403 13.13 28.913 13.13 21.208 0 38.4-17.192 38.4-38.4 0-6.348-1.54-12.336-4.267-17.611l0.101 0.214-3.413-4.693-123.307-153.6c-7.016-8.477-17.54-13.838-29.316-13.838-10.35 0-19.734 4.141-26.583 10.857l0.006-0.006-3.84 4.693-108.8 154.027c-4.226 6.080-6.751 13.618-6.751 21.746 0 13.041 6.501 24.564 16.44 31.505l0.125 0.082c6.072 4.302 13.633 6.877 21.795 6.877 10.914 0 20.753-4.605 27.68-11.977l0.019-0.020 3.84-4.693 34.133-49.067c20.254 181.469 172.803 321.282 358.008 321.282 0.438 0 0.876-0.001 1.313-0.002h-0.068zM855.893 564.053l3.413-4.267 106.667-154.453c4.234-6.172 6.762-13.804 6.762-22.026 0-12.994-6.313-24.513-16.040-31.657l-0.109-0.077c-6.131-4.331-13.76-6.923-21.994-6.923-10.994 0-20.909 4.62-27.909 12.025l-0.017 0.018-3.84 4.267-34.133 49.067c-22.75-181.604-176.194-320.704-362.125-320.704-104.547 0-198.823 43.979-265.336 114.447l-0.166 0.178c-6.301 6.897-10.161 16.118-10.161 26.24 0 21.518 17.444 38.961 38.961 38.961 11.396 0 21.648-4.892 28.773-12.691l0.027-0.030c53.015-55.513 127.61-90.027 210.265-90.027 0.029 0 0.057 0 0.086 0h-0.004c0.659-0.006 1.438-0.009 2.218-0.009 151.172 0 274.814 117.87 284.035 266.719l0.040 0.81-61.44-73.813c-7.076-8.066-17.403-13.13-28.913-13.13-21.208 0-38.4 17.192-38.4 38.4 0 6.348 1.54 12.336 4.267 17.611l-0.101-0.214 3.413 4.693 123.307 153.6c7.090 8.364 17.604 13.638 29.35 13.638 10.304 0 19.661-4.059 26.558-10.664l-0.014 0.013z" />
<glyph unicode="&#xe92f;" glyph-name="reports" d="M640 829.44v-253.44h253.44v5.973c-19.176 123.193-112.598 220.070-232.359 244.164l-1.881 0.316h-12.373zM601.6 908.8c204.91-0.243 370.957-166.289 371.2-371.176v-0.024c-0.044-19.367-14.418-35.364-33.079-37.95l-0.201-0.023h-337.92c-19.367 0.044-35.364 14.418-37.95 33.079l-0.023 0.201v337.493c0 0.001 0 0.002 0 0.002 0 21.058 16.95 38.157 37.951 38.397h0.023zM422.4 727.467h-8.533c-162.408-23.887-285.67-162.272-285.67-329.446 0-183.8 149-332.8 332.8-332.8 162.858 0 298.393 116.979 327.166 271.496l0.318 2.057v20.907h-327.68c-17.558 0.099-32.347 11.837-37.051 27.886l-0.069 0.274v339.627zM460.8 806.4c19.367-0.044 35.364-14.418 37.95-33.079l0.023-0.201v-337.92h332.8c17.558-0.099 32.347-11.837 37.051-27.886l0.069-0.274v-10.24c0-226.216-183.384-409.6-409.6-409.6s-409.6 183.384-409.6 409.6c0 226.216 183.384 409.6 409.6 409.6v0z" />
<glyph unicode="&#xe930;" glyph-name="file-request" d="M422.4 588.8c20.643-0.718 37.105-17.626 37.105-38.378 0-19.246-14.158-35.184-32.627-37.969l-0.212-0.026h-183.467c-20.965 0.316-37.839 17.385-37.839 38.396 0 19.203 14.095 35.114 32.504 37.95l0.215 0.027h184.32zM371.2 435.2c20.965-0.316 37.839-17.385 37.839-38.396 0-19.203-14.095-35.114-32.504-37.95l-0.215-0.027h-133.12c-20.965 0.316-37.839 17.385-37.839 38.396 0 19.203 14.095 35.114 32.504 37.95l0.215 0.027h133.12zM716.8 384c1.946 0.141 4.216 0.221 6.504 0.221 51.446 0 93.441-40.468 95.887-91.308l0.008-0.219c-1.73-39.635-27.678-72.783-63.338-85.134l-0.662-0.2c-2.56-20.053-15.36-29.867-38.4-29.867-1.060-0.121-2.288-0.19-3.533-0.19-17.16 0-31.247 13.156-32.725 29.933l-0.009 0.125v19.627c0.503 18.454 13.807 33.658 31.328 37.080l0.245 0.040h4.693c1.434-0.271 3.084-0.427 4.77-0.427 14.845 0 26.88 12.035 26.88 26.88s-12.035 26.88-26.88 26.88c-1.686 0-3.336-0.155-4.936-0.452l0.166 0.026c-0.365 0.016-0.793 0.025-1.223 0.025-13.846 0-25.46-9.559-28.602-22.437l-0.042-0.202v-3.84c-2.048-18.268-17.408-32.339-36.053-32.339s-34.005 14.071-36.038 32.174l-0.015 0.165c1.326 51.989 43.785 93.628 95.971 93.628 2.112 0 4.208-0.068 6.286-0.202l-0.283 0.015zM716.8 166.4c21.208 0 38.4-17.192 38.4-38.4s-17.192-38.4-38.4-38.4c-21.208 0-38.4 17.192-38.4 38.4v0c0 21.208 17.192 38.4 38.4 38.4v0zM716.8 422.4c-98.969 0-179.2-80.231-179.2-179.2s80.231-179.2 179.2-179.2c98.969 0 179.2 80.231 179.2 179.2v0c0 98.969-80.231 179.2-179.2 179.2v0zM526.933 908.8c0.070 0 0.152 0.001 0.235 0.001 7.865 0 15.172-2.391 21.233-6.486l-0.134 0.086 4.693-3.413 151.040-136.96c6.563-5.802 11.065-13.803 12.35-22.84l0.023-0.2v-150.187c-0.316-20.965-17.385-37.839-38.396-37.839-19.203 0-35.114 14.095-37.95 32.504l-0.027 0.215v132.693l-128 115.627h-384v-716.8h294.4c19.367-0.044 35.364-14.418 37.95-33.079l0.023-0.201v-5.12c-0.044-19.367-14.418-35.364-33.079-37.95l-0.201-0.023h-337.493c-19.367 0.044-35.364 14.418-37.95 33.079l-0.023 0.201v798.293c0.073 19.495 14.662 35.561 33.517 37.954l0.19 0.020h441.6zM716.8 499.2c141.385 0 256-114.615 256-256s-114.615-256-256-256c-141.385 0-256 114.615-256 256v0c0 141.385 114.615 256 256 256v0z" />
<glyph unicode="&#xe931;" glyph-name="search-result" d="M435.2 676.693c-84.831 0-153.6-68.769-153.6-153.6s68.769-153.6 153.6-153.6c84.831 0 153.6 68.769 153.6 153.6v0c0 84.831-68.769 153.6-153.6 153.6v0zM435.2 753.493c127.164-0.109 230.208-103.221 230.208-230.4 0-49.717-15.747-95.757-42.526-133.402l0.479 0.709 184.747-183.893c6.938-7.011 11.225-16.658 11.225-27.307s-4.287-20.295-11.228-27.31l0.003 0.003c-6.878-6.906-16.394-11.18-26.909-11.18-8.692 0-16.701 2.92-23.101 7.833l0.090-0.066-4.693 3.413-184.32 183.893c-36.742-26.675-82.743-42.672-132.48-42.672-0.525 0-1.050 0.002-1.574 0.005h0.081c-127.246 0-230.4 103.154-230.4 230.4s103.154 230.4 230.4 230.4v0zM896 832h-768v-768h768zM921.6 908.8c28.277 0 51.2-22.923 51.2-51.2v-819.2c0-28.277-22.923-51.2-51.2-51.2v0h-819.2c-28.277 0-51.2 22.923-51.2 51.2v0 819.2c0 28.277 22.923 51.2 51.2 51.2v0z" />
<glyph unicode="&#xe932;" glyph-name="search" d="M396.8 832c-148.454 0-268.8-120.346-268.8-268.8s120.346-268.8 268.8-268.8c148.454 0 268.8 120.346 268.8 268.8v0c0 148.454-120.346 268.8-268.8 268.8v0zM396.8 908.8c190.814-0.074 345.47-154.776 345.47-345.6 0-81.796-28.416-156.956-75.916-216.144l0.526 0.678 294.827-294.827c8.13-7.081 13.239-17.451 13.239-29.013 0-21.214-17.198-38.412-38.412-38.412-9.652 0-18.472 3.56-25.219 9.438l0.046-0.039-4.267 3.413-294.827 294.827c-58.54-47.053-133.76-75.52-215.63-75.52-190.87 0-345.6 154.73-345.6 345.6s154.73 345.6 345.6 345.6c0.057 0 0.115 0 0.172 0h-0.009z" />
<glyph unicode="&#xe933;" glyph-name="services" d="M640 832h-256v-51.2h256zM640 642.133c7.349-6.94 11.924-16.751 11.924-27.63 0-8.376-2.712-16.118-7.305-22.397l0.075 0.107-3.413-4.267-123.307-128c-7.010-7.367-16.889-11.949-27.837-11.949-7.909 0-15.259 2.391-21.368 6.49l0.138-0.087-4.267 3.413-80.64 73.387c-7.849 7.060-12.763 17.251-12.763 28.589 0 9.851 3.71 18.836 9.808 25.634l-0.032-0.036c7.191 7.743 17.427 12.572 28.791 12.572 7.844 0 15.152-2.301 21.283-6.265l-0.154 0.093 4.267-3.413 54.187-48.64 97.28 101.12c6.966 7.055 16.638 11.425 27.329 11.425 10.044 0 19.187-3.856 26.030-10.169l-0.026 0.024zM664.747 371.2c20.965-0.316 37.839-17.385 37.839-38.396 0-19.203-14.095-35.114-32.504-37.95l-0.215-0.027h-311.467c-20.965 0.316-37.839 17.385-37.839 38.396 0 19.203 14.095 35.114 32.504 37.95l0.215 0.027h312.32zM664.747 217.6c20.965-0.316 37.839-17.385 37.839-38.396 0-19.203-14.095-35.114-32.504-37.95l-0.215-0.027h-311.467c-20.965 0.316-37.839 17.385-37.839 38.396 0 19.203 14.095 35.114 32.504 37.95l0.215 0.027h312.32zM844.8 832h-128v-76.8c0-28.277-22.923-51.2-51.2-51.2v0h-307.2c-28.277 0-51.2 22.923-51.2 51.2v76.8h-128v-768h665.6zM870.4 908.8c28.277 0 51.2-22.923 51.2-51.2v0-819.2c0-28.277-22.923-51.2-51.2-51.2h-716.8c-28.277 0-51.2 22.923-51.2 51.2v0 819.2c0 28.277 22.923 51.2 51.2 51.2v0z" />
<glyph unicode="&#xe934;" glyph-name="filter" d="M853.333 832l-294.4-372.907-2.987-4.267c-3.481-5.428-5.55-12.051-5.55-19.157 0-0.165 0.001-0.33 0.003-0.494v0.025-275.2l-76.8-57.6v337.92c-0.856 7.235-3.777 13.664-8.149 18.825l0.043-0.052-294.827 372.907zM89.6 908.8h-4.267c-19.442-1.817-34.54-18.054-34.54-37.818 0-9.352 3.38-17.914 8.986-24.531l-0.046 0.055 337.067-426.667v-394.24c0-21.208 17.192-38.4 38.4-38.4 8.688 0 16.702 2.885 23.137 7.75l-0.097-0.070 153.6 115.2 3.84 3.413c7.047 6.973 11.436 16.619 11.52 27.291v281.189l337.067 424.533c5.197 6.493 8.339 14.826 8.339 23.894 0 21.14-17.082 38.289-38.195 38.399h-0.011z" />
<glyph unicode="&#xe935;" glyph-name="sprint" d="M768 268.8h128v358.4h-768v-358.4h128v155.733c0 0.093-0.001 0.204-0.001 0.314 0 38.598 29.456 70.317 67.115 73.903l0.299 0.023h369.92c0.232 0.003 0.507 0.004 0.781 0.004 38.449 0 70.071-29.228 73.86-66.678l0.026-0.313v-162.987zM742.4 832h-460.8v-128h460.8zM579.84 349.44c21.139-0.091 38.24-17.248 38.24-38.4 0-19.194-14.082-35.099-32.479-37.946l-0.215-0.027h-141.227c-20.458 1.218-36.587 18.106-36.587 38.762 0 18.687 13.202 34.291 30.787 37.993l0.253 0.045h141.227zM579.84 213.76c20.458-1.218 36.587-18.106 36.587-38.762 0-18.687-13.202-34.291-30.787-37.993l-0.253-0.045h-141.227c-21.139 0.091-38.24 17.248-38.24 38.4 0 19.194 14.082 35.099 32.479 37.946l0.215 0.027h141.227zM691.2 422.4h-358.4v-358.4h358.4zM768 192v-130.133c0-0.093 0.001-0.204 0.001-0.314 0-38.598-29.456-70.317-67.115-73.903l-0.299-0.023h-369.92c-0.232-0.003-0.507-0.004-0.781-0.004-38.449 0-70.071 29.228-73.86 66.678l-0.026 0.313v137.387h-153.6c-28.277 0-51.2 22.923-51.2 51.2v0 409.6c0 28.277 22.923 51.2 51.2 51.2v0h102.4v153.6c0 28.277 22.923 51.2 51.2 51.2v0h512c28.277 0 51.2-22.923 51.2-51.2v-153.6h102.4c28.277 0 51.2-22.923 51.2-51.2v0-409.6c0-28.277-22.923-51.2-51.2-51.2v0z" />
<glyph unicode="&#xe936;" glyph-name="star-fill" d="M361.387 609.707l-290.56-42.667h-3.84c-9.145-3.193-15.589-11.745-15.589-21.802 0-6.303 2.531-12.014 6.632-16.174l-0.003 0.003 210.347-203.093-49.493-286.293v-3.84c0-0.017 0-0.038 0-0.058 0-12.725 10.315-23.040 23.040-23.040 3.899 0 7.572 0.969 10.791 2.678l-0.125-0.060 259.413 133.973 259.84-135.253h3.413c2.282-0.849 4.919-1.341 7.671-1.341 12.489 0 22.613 10.124 22.613 22.613 0 1.531-0.152 3.027-0.442 4.472l0.024-0.145-49.493 286.293 210.347 203.093 2.56 4.267c2.75 3.701 4.403 8.361 4.403 13.407 0 11.484-8.561 20.969-19.649 22.421l-0.114 0.012-290.56 42.667-128 260.693c-3.187 8.878-11.532 15.113-21.333 15.113s-18.146-6.235-21.284-14.956l-0.050-0.158z" />
<glyph unicode="&#xe937;" glyph-name="success" d="M732.16 614.827c5.895-6.602 9.498-15.36 9.498-24.96s-3.603-18.358-9.53-24.997l0.032 0.037-3.84-4.267-288-268.8c-6.79-6.437-15.985-10.396-26.105-10.396-8.482 0-16.315 2.781-22.636 7.482l0.101-0.072-4.693 3.84-94.293 96c-7.739 7.051-12.577 17.171-12.577 28.421 0 21.208 17.192 38.4 38.4 38.4 8.59 0 16.522-2.821 22.919-7.587l-0.102 0.073 4.267-3.413 69.547-69.973 262.827 244.053c6.673 5.948 15.521 9.582 25.217 9.582 11.586 0 21.96-5.189 28.925-13.369l0.044-0.054zM512 832c-212.077 0-384-171.923-384-384s171.923-384 384-384c212.077 0 384 171.923 384 384v0c0 212.077-171.923 384-384 384v0zM512 908.8c254.493 0 460.8-206.307 460.8-460.8s-206.307-460.8-460.8-460.8c-254.493 0-460.8 206.307-460.8 460.8v0c0 254.493 206.307 460.8 460.8 460.8v0z" />
<glyph unicode="&#xe938;" glyph-name="system-status" d="M419.413 731.307l2.133-5.547 93.013-392.107 62.72 226.987c4.516 16.548 19.414 28.512 37.105 28.512 13.042 0 24.565-6.502 31.506-16.441l0.082-0.125 2.56-5.12 66.56-132.267h66.987c19.367-0.044 35.364-14.418 37.95-33.079l0.023-0.201v-5.12c-0.044-19.367-14.418-35.364-33.079-37.95l-0.201-0.023h-95.573c-13.030 0.101-24.52 6.604-31.491 16.516l-0.082 0.124-2.56 4.693-32.427 64-75.52-274.773c-4.652-16.346-19.45-28.115-36.997-28.115-15.96 0-29.647 9.737-35.442 23.595l-0.094 0.253-2.133 5.547-85.333 366.933-23.467-116.907c-6.655-33.198-34.125-58.349-67.97-61.418l-0.296-0.022h-54.187c-20.965 0.316-37.839 17.385-37.839 38.396 0 19.203 14.095 35.114 32.504 37.95l0.215 0.027h50.347l58.027 288.853c3.835 17.48 19.188 30.369 37.551 30.369 15.844 0 29.447-9.595 35.314-23.292l0.095-0.25zM892.587 832h-761.173c-0.503 0.225-1.089 0.356-1.707 0.356s-1.204-0.131-1.734-0.367l0.027 0.011v-764.587c-0.225-0.503-0.356-1.089-0.356-1.707s0.131-1.204 0.367-1.734l-0.011 0.027h764.587c0.503-0.225 1.089-0.356 1.707-0.356s1.204 0.131 1.734 0.367l-0.027-0.011v764.587c0.225 0.503 0.356 1.089 0.356 1.707s-0.131 1.204-0.367 1.734l0.011-0.027zM892.587 908.8c44.301 0 80.213-35.913 80.213-80.213v0-761.173c-0.241-44.204-36.010-79.973-80.19-80.213h-761.196c-44.301 0-80.213 35.913-80.213 80.213v0 761.173c0 44.301 35.913 80.213 80.213 80.213v0z" />
<glyph unicode="&#xe939;" glyph-name="thumb-up" d="M544.427 767.573c14.507 0 25.173-15.36 25.173-42.667-0.845-26.956-3.912-52.644-9.034-77.583l0.5 2.916c-2.987-14.507-5.973-30.293-9.813-46.507s-5.547-24.32-8.533-35.84l-9.387-35.413v-2.987c-0.873-3.071-1.375-6.597-1.375-10.241 0-21.327 17.195-38.638 38.477-38.825h307.218c0.564 0.065 1.218 0.101 1.88 0.101 8.794 0 16.072-6.489 17.308-14.94l0.011-0.095c-1.247-8.546-8.526-15.035-17.32-15.035-0.662 0-1.316 0.037-1.959 0.109l0.079-0.007h-38.4c-21.208 0-38.4-17.192-38.4-38.4s17.192-38.4 38.4-38.4v0c1.080 0.271 2.319 0.427 3.595 0.427 8.483 0 15.36-6.877 15.36-15.36s-6.877-15.36-15.36-15.36c-1.276 0-2.515 0.156-3.701 0.449l0.106-0.022h-38.4c-0.081 0.001-0.176 0.001-0.271 0.001-21.208 0-38.4-17.192-38.4-38.4 0-19.195 14.085-35.101 32.483-37.947l0.215-0.027h5.973c1.332 0.406 2.864 0.64 4.449 0.64 8.719 0 15.787-7.068 15.787-15.787s-7.068-15.787-15.787-15.787c-1.586 0-3.117 0.234-4.561 0.669l0.112-0.029h-38.4c-0.081 0.001-0.176 0.001-0.271 0.001-21.208 0-38.4-17.192-38.4-38.4 0-19.195 14.085-35.101 32.483-37.947l0.215-0.027h5.973c1.080 0.271 2.319 0.427 3.595 0.427 8.483 0 15.36-6.877 15.36-15.36s-6.877-15.36-15.36-15.36c-1.276 0-2.515 0.156-3.701 0.449l0.106-0.022h-250.453c-3.704-0.324-8.014-0.509-12.366-0.509-26.782 0-51.931 6.99-73.723 19.246l0.756-0.391-12.373 7.253-35.84 22.613-10.24 5.973c-64.253 35.193-140.773 55.893-222.129 55.893-0.058 0-0.116 0-0.174 0h-17.484v201.813h76.373c178.002 3.009 321.71 145.673 326.391 322.975l0.009 0.438s3.84 2.987 13.227 1.28zM454.4 767.573c-4.392-135.699-113.747-244.458-249.276-247.887l-0.324-0.006h-115.2c-21.208 0-38.4-17.192-38.4-38.4v-276.48c0-21.208 17.192-38.4 38.4-38.4v0c118.613 0 183.893-15.36 240.64-47.36l16.213-9.387 29.867-19.2c36.21-24.645 80.906-39.349 129.038-39.349 2.336 0 4.663 0.035 6.982 0.103l-0.34-0.008h249.6c0.642-0.016 1.399-0.025 2.157-0.025 51.1 0 92.663 40.832 93.841 91.648l0.002 0.11v6.4c-0.449 5.367-1.355 10.307-2.694 15.066l0.134-0.559-1.707 8.96 3.84 2.56c23.595 16.555 38.828 43.635 38.828 74.274 0 0.138 0 0.276-0.001 0.414v-0.021 7.253c-0.457 5.532-1.364 10.62-2.698 15.531l0.138-0.598-2.133 7.68 3.84 2.56c23.917 16.383 39.462 43.473 39.68 74.207v6.006c-0.449 5.367-1.355 10.307-2.694 15.066l0.134-0.559v7.68l3.84 2.56c23.917 16.383 39.462 43.473 39.68 74.207v7.713c-4.504 48.049-44.635 85.357-93.48 85.357-0.736 0-1.47-0.008-2.202-0.025l0.109 0.002h-256v30.72q5.547 26.453 10.24 49.92c5.521 26.191 9.057 56.604 9.802 87.709l0.012 0.611c0.278 2.964 0.437 6.41 0.437 9.893 0 54.125-38.32 99.3-89.31 109.874l-0.727 0.126c-5.182 1.118-11.134 1.759-17.236 1.759-42.478 0-77.706-31.037-84.245-71.67l-0.065-0.489z" />
<glyph unicode="&#xe93a;" glyph-name="time" d="M512 704c19.367-0.044 35.364-14.418 37.95-33.079l0.023-0.201v-206.080l154.027-142.080c7.576-7.035 12.302-17.049 12.302-28.168 0-8.13-2.527-15.671-6.838-21.878l0.083 0.126-3.413-4.693c-7.035-7.576-17.049-12.302-28.168-12.302-8.13 0-15.671 2.527-21.878 6.838l0.126-0.083-4.267 3.413-178.347 165.547v234.24c0 21.208 17.192 38.4 38.4 38.4v0zM512 832c-212.077 0-384-171.923-384-384s171.923-384 384-384c212.077 0 384 171.923 384 384v0c0 212.077-171.923 384-384 384v0zM512 908.8c254.493 0 460.8-206.307 460.8-460.8s-206.307-460.8-460.8-460.8c-254.493 0-460.8 206.307-460.8 460.8v0c0.243 254.395 206.405 460.557 460.776 460.8h0.024z" />
<glyph unicode="&#xe93b;" glyph-name="view-grid" d="M396.8 832h-268.8v-268.8h268.8zM896 832h-268.8v-268.8h268.8zM422.4 908.8c28.277 0 51.2-22.923 51.2-51.2v-320c0-28.277-22.923-51.2-51.2-51.2v0h-320c-28.277 0-51.2 22.923-51.2 51.2v0 320c0 28.277 22.923 51.2 51.2 51.2v0zM921.6 908.8c28.277 0 51.2-22.923 51.2-51.2v-320c0-28.277-22.923-51.2-51.2-51.2v0h-320c-28.277 0-51.2 22.923-51.2 51.2v0 320c0 28.277 22.923 51.2 51.2 51.2v0zM896 332.8h-268.8v-268.8h268.8zM396.8 332.8h-268.8v-268.8h268.8zM921.6 409.6c28.277 0 51.2-22.923 51.2-51.2v0-320c0-28.277-22.923-51.2-51.2-51.2v0h-320c-28.277 0-51.2 22.923-51.2 51.2v0 320c0 28.277 22.923 51.2 51.2 51.2v0zM422.4 409.6c28.277 0 51.2-22.923 51.2-51.2v0-320c0-28.277-22.923-51.2-51.2-51.2v0h-320c-28.277 0-51.2 22.923-51.2 51.2v0 320c0 28.277 22.923 51.2 51.2 51.2v0z" />
<glyph unicode="&#xe93c;" glyph-name="view-list" d="M896 832h-768v-268.8h768zM921.6 908.8c28.277 0 51.2-22.923 51.2-51.2v-320c0-28.277-22.923-51.2-51.2-51.2v0h-819.2c-28.277 0-51.2 22.923-51.2 51.2v0 320c0 28.277 22.923 51.2 51.2 51.2v0zM896 332.8h-768v-268.8h768zM921.6 409.6c28.277 0 51.2-22.923 51.2-51.2v0-320c0-28.277-22.923-51.2-51.2-51.2v0h-819.2c-28.277 0-51.2 22.923-51.2 51.2v0 320c0 28.277 22.923 51.2 51.2 51.2v0z" />
<glyph unicode="&#xe93d;" glyph-name="warning" d="M512 588.8c19.367-0.044 35.364-14.418 37.95-33.079l0.023-0.201v-209.92c-0.316-20.965-17.385-37.839-38.396-37.839-19.203 0-35.114 14.095-37.95 32.504l-0.027 0.215v209.92c0 21.208 17.192 38.4 38.4 38.4v0zM512 243.2c28.277 0 51.2-22.923 51.2-51.2s-22.923-51.2-51.2-51.2c-28.277 0-51.2 22.923-51.2 51.2v0c0 28.277 22.923 51.2 51.2 51.2v0zM512 784.64l-360.107-720.64h720.213zM477.867 887.467c6.431 12.729 19.406 21.305 34.385 21.305 12.879 0 24.277-6.34 31.243-16.069l0.079-0.116 424.96-849.92c2.619-5.022 4.156-10.968 4.156-17.273 0-19.58-14.82-35.7-33.855-37.753l-0.168-0.015h-849.067c-21.171 0.048-38.315 17.222-38.315 38.4 0 4.429 0.75 8.684 2.13 12.643l-0.082-0.269 2.133 4.693z" />
<glyph unicode="&#xe93e;" glyph-name="check" d="M957.013 848.64c9.822-7.885 16.056-19.89 16.056-33.351 0-9.81-3.311-18.847-8.876-26.054l0.073 0.099-580.267-731.307c-9.461-11.868-23.916-19.407-40.133-19.407-11.95 0-22.945 4.094-31.656 10.957l0.109-0.083-4.267 3.84-244.48 239.787c-7.054 7.589-11.383 17.796-11.383 29.013s4.329 21.424 11.407 29.040l-0.024-0.027c7.666 7.418 18.126 11.989 29.653 11.989s21.987-4.571 29.665-12l-0.012 0.011 219.733-213.333 554.667 702.293c7.867 10.41 20.223 17.067 34.133 17.067 9.653 0 18.558-3.206 25.707-8.611l-0.107 0.078z" />
<glyph unicode="&#xe93f;" glyph-name="collapse-all" d="M524.8 768c21.208 0 38.4-17.192 38.4-38.4s-17.192-38.4-38.4-38.4h-435.2c-21.208 0-38.4 17.192-38.4 38.4s17.192 38.4 38.4 38.4v0zM934.4 768c21.208 0 38.4-17.192 38.4-38.4s-17.192-38.4-38.4-38.4h-179.2c-21.208 0-38.4 17.192-38.4 38.4s17.192 38.4 38.4 38.4v0zM524.8 512c21.208 0 38.4-17.192 38.4-38.4s-17.192-38.4-38.4-38.4h-435.2c-21.208 0-38.4 17.192-38.4 38.4s17.192 38.4 38.4 38.4v0zM371.2 256c21.208 0 38.4-17.192 38.4-38.4s-17.192-38.4-38.4-38.4h-281.6c-21.208 0-38.4 17.192-38.4 38.4s17.192 38.4 38.4 38.4v0zM866.133 503.040l97.707-97.707c5.534-5.425 8.964-12.979 8.964-21.333s-3.43-15.908-8.959-21.329l-0.005-0.005c-5.451-5.494-12.988-8.91-21.324-8.96h-59.316v-276.907c0-21.208-17.192-38.4-38.4-38.4s-38.4 17.192-38.4 38.4v276.907h-59.307c-16.731 0-30.293 13.563-30.293 30.293v0c-0.010 0.282-0.016 0.613-0.016 0.945 0 7.981 3.271 15.198 8.545 20.385l97.711 97.711c5.444 5.665 13.084 9.184 21.547 9.184s16.103-3.519 21.537-9.174l0.009-0.010z" />
<glyph unicode="&#xe940;" glyph-name="expand-all" d="M524.8 768c21.208 0 38.4-17.192 38.4-38.4s-17.192-38.4-38.4-38.4h-435.2c-21.208 0-38.4 17.192-38.4 38.4s17.192 38.4 38.4 38.4v0zM844.8 857.6c21.208 0 38.4-17.192 38.4-38.4v0-51.2h51.2c21.208 0 38.4-17.192 38.4-38.4s-17.192-38.4-38.4-38.4h-51.2v-51.2c0-21.208-17.192-38.4-38.4-38.4s-38.4 17.192-38.4 38.4v0 51.2h-51.2c-21.208 0-38.4 17.192-38.4 38.4s17.192 38.4 38.4 38.4h51.2v51.2c0 21.208 17.192 38.4 38.4 38.4v0zM524.8 512c21.208 0 38.4-17.192 38.4-38.4s-17.192-38.4-38.4-38.4h-435.2c-21.208 0-38.4 17.192-38.4 38.4s17.192 38.4 38.4 38.4v0zM371.2 256c21.208 0 38.4-17.192 38.4-38.4s-17.192-38.4-38.4-38.4h-281.6c-21.208 0-38.4 17.192-38.4 38.4s17.192 38.4 38.4 38.4v0zM844.8 499.2c21.208 0 38.4-17.192 38.4-38.4v-264.107h59.307c16.731 0 30.293-13.563 30.293-30.293v0c0.003-0.162 0.005-0.353 0.005-0.544 0-8.184-3.439-15.565-8.952-20.777l-0.014-0.013-97.707-97.707c-5.425-5.534-12.979-8.964-21.333-8.964s-15.908 3.43-21.329 8.959l-0.005 0.005-98.133 97.707c-5.534 5.425-8.964 12.979-8.964 21.333s3.43 15.908 8.959 21.329l0.005 0.005c5.451 5.494 12.988 8.91 21.324 8.96h59.742v264.107c0 21.208 17.192 38.4 38.4 38.4v0z" />
<glyph unicode="&#xe941;" glyph-name="more-vertical" d="M512 857.6h10.24c37.781-5.227 66.56-37.31 66.56-76.114 0-42.415-34.385-76.8-76.8-76.8s-76.8 34.385-76.8 76.8c0 38.804 28.779 70.887 66.158 76.069l0.402 0.046zM512 524.8h10.24c37.781-5.227 66.56-37.31 66.56-76.114 0-42.415-34.385-76.8-76.8-76.8s-76.8 34.385-76.8 76.8c0 38.804 28.779 70.887 66.158 76.069l0.402 0.046zM512 192h10.24c37.781-5.227 66.56-37.31 66.56-76.114 0-42.415-34.385-76.8-76.8-76.8s-76.8 34.385-76.8 76.8c0 38.804 28.779 70.887 66.158 76.069l0.402 0.046z" />
<glyph unicode="&#xe942;" glyph-name="sort-by" d="M281.6 631.040l-85.333-285.44h168.96zM318.293 784.213v-5.547l189.867-640c0.994-3.212 1.566-6.904 1.566-10.73 0-17.813-12.404-32.729-29.046-36.58l-0.253-0.049c-3.221-0.871-6.918-1.372-10.733-1.372-16.090 0-30.101 8.907-37.369 22.059l-0.111 0.219v5.12l-42.667 151.467h-213.333l-42.667-151.467c-6.134-16.524-21.766-28.086-40.098-28.086-2.871 0-5.676 0.284-8.387 0.824l0.272-0.045h-5.12c-16.992 3.827-29.495 18.79-29.495 36.673 0 2.116 0.175 4.192 0.512 6.213l-0.030-0.219v5.12l189.867 640c6.141 16.511 21.766 28.061 40.089 28.061 15.842 0 29.668-8.634 37.028-21.453l0.11-0.208zM938.667 806.4c20.296-1.131 36.326-17.866 36.326-38.344 0-5.414-1.12-10.567-3.142-15.238l0.096 0.249-2.133-4.267-307.627-582.4h276.48c18.693-0.562 33.876-14.861 35.826-33.117l0.014-0.163v-5.12c0.008-0.29 0.013-0.631 0.013-0.974 0-18.48-13.35-33.841-30.933-36.966l-0.227-0.033h-341.333c-20.296 1.131-36.326 17.866-36.326 38.344 0 5.414 1.12 10.567 3.142 15.238l-0.096-0.249 2.133 4.267 302.933 581.973h-274.347c-18.693 0.562-33.876 14.861-35.826 33.117l-0.014 0.163v5.12c-0.008 0.29-0.013 0.631-0.013 0.974 0 18.48 13.35 33.841 30.933 36.966l0.227 0.033h341.333z" />
<glyph unicode="&#xe943;" glyph-name="account-information" d="M934.4 819.2c21.208 0 38.4-17.192 38.4-38.4s-17.192-38.4-38.4-38.4h-281.6c-21.208 0-38.4 17.192-38.4 38.4s17.192 38.4 38.4 38.4v0zM934.4 640c21.208 0 38.4-17.192 38.4-38.4s-17.192-38.4-38.4-38.4h-281.6c-21.208 0-38.4 17.192-38.4 38.4s17.192 38.4 38.4 38.4v0zM364.8 789.333c-75.405 0-136.533-61.128-136.533-136.533s61.128-136.533 136.533-136.533c75.405 0 136.533 61.128 136.533 136.533v0c0 75.405-61.128 136.533-136.533 136.533v0zM934.4 460.8c21.208 0 38.4-17.192 38.4-38.4s-17.192-38.4-38.4-38.4h-179.2c-21.208 0-38.4 17.192-38.4 38.4s17.192 38.4 38.4 38.4v0zM370.347 429.653c-2.238 0.074-4.869 0.116-7.51 0.116-128.135 0-233.167-98.921-242.892-224.562l-0.052-0.834v-97.707h500.907v88.32c-4.43 130.602-111.369 234.792-242.642 234.792-2.747 0-5.483-0.046-8.208-0.136l0.397 0.010zM364.8 856.32c0.102 0 0.222 0 0.342 0 113.108 0 204.8-91.692 204.8-204.8 0-72.033-37.188-135.38-93.413-171.889l-0.796-0.484c123.204-39.279 211.255-151.805 213.33-285.198l0.003-0.242v-155.307h-637.867v156.587c1.603 130.801 85.743 241.538 202.675 282.656l2.125 0.651c-58.953 36.648-97.617 101.065-97.617 174.513 0 113.108 91.692 204.8 204.8 204.8 0.568 0 1.136-0.002 1.704-0.007l-0.087 0.001z" />
<glyph unicode="&#xe944;" glyph-name="card-collection" d="M896 832h-614.4v-51.2h614.4zM921.6 908.8c28.277 0 51.2-22.923 51.2-51.2v-473.6c0-21.208-17.192-38.4-38.4-38.4s-38.4 17.192-38.4 38.4v0 320h-614.4v-38.4c0-21.208-17.192-38.4-38.4-38.4s-38.4 17.192-38.4 38.4v0 192c0 28.277 22.923 51.2 51.2 51.2v0zM563.2 294.4c-0.019 0-0.041 0-0.063 0-12.731 0-24.368-4.686-33.279-12.426l0.062 0.053c0-2.56 2.133-5.547 2.987-8.96 0.455-1.743 0.716-3.744 0.716-5.806 0-11.178-7.676-20.563-18.045-23.172l-0.165-0.035h-5.973c-11.438 0.144-21.334 6.606-26.374 16.050l-0.079 0.163v4.267c-1.4 4.408-3.435 8.237-6.037 11.606l0.064-0.086-4.267 1.28-4.693 4.267-6.4 4.693-5.12 2.56-5.973 2.56h-15.36c-28.277 0-51.2-22.923-51.2-51.2s22.923-51.2 51.2-51.2v0c13.872 0.76 26.59 5.11 37.418 12.128l-0.298-0.181 14.080 8.533c3.661 2.197 8.079 3.497 12.8 3.497s9.139-1.3 12.915-3.561l-0.115 0.064 6.827-3.84c11.858-8.972 26.434-14.965 42.3-16.609l0.366-0.031c28.277 0 51.2 22.923 51.2 51.2s-22.923 51.2-51.2 51.2v0zM563.2 371.2c70.692 0 128-57.308 128-128s-57.308-128-128-128v0c-16.248 0.056-31.785 3.024-46.142 8.408l0.915-0.301-10.667 4.693-8.107 4.267-8.107-4.267c-10.622-5.211-22.947-9.224-35.893-11.408l-0.8-0.112h-19.2c-1.144-0.037-2.49-0.058-3.84-0.058-70.724 0-128.058 57.333-128.058 128.058 0 69.374 55.165 125.863 124.021 127.995l0.196 0.005h30.293l12.373-2.56 9.813-3.413 11.52-4.693 7.68-4.267 8.107 4.267c10.622 5.211 22.947 9.224 35.893 11.408l0.8 0.112h9.387zM742.4 473.6h-614.4v-409.6h614.4zM768 550.4c28.277 0 51.2-22.923 51.2-51.2v0-460.8c0-28.277-22.923-51.2-51.2-51.2v0h-665.6c-28.277 0-51.2 22.923-51.2 51.2v0 460.8c0 28.277 22.923 51.2 51.2 51.2v0z" />
<glyph unicode="&#xe945;" glyph-name="card-master" d="M435.2 524.8c14.138 0 25.6-11.462 25.6-25.6s-11.462-25.6-25.6-25.6c-14.138 0-25.6 11.462-25.6 25.6v0c0 14.138 11.462 25.6 25.6 25.6v0zM332.8 524.8c14.138 0 25.6-11.462 25.6-25.6s-11.462-25.6-25.6-25.6c-14.138 0-25.6 11.462-25.6 25.6v0c0 14.138 11.462 25.6 25.6 25.6v0zM486.4 473.6c14.138 0 25.6-11.462 25.6-25.6s-11.462-25.6-25.6-25.6c-14.138 0-25.6 11.462-25.6 25.6v0c0 14.138 11.462 25.6 25.6 25.6v0zM281.6 473.6c14.138 0 25.6-11.462 25.6-25.6s-11.462-25.6-25.6-25.6c-14.138 0-25.6 11.462-25.6 25.6v0c0 14.138 11.462 25.6 25.6 25.6v0zM384 473.6c14.138 0 25.6-11.462 25.6-25.6s-11.462-25.6-25.6-25.6c-14.138 0-25.6 11.462-25.6 25.6v0c0 14.138 11.462 25.6 25.6 25.6v0zM435.2 422.4c14.138 0 25.6-11.462 25.6-25.6s-11.462-25.6-25.6-25.6c-14.138 0-25.6 11.462-25.6 25.6v0c0 14.138 11.462 25.6 25.6 25.6v0zM332.8 422.4c14.138 0 25.6-11.462 25.6-25.6s-11.462-25.6-25.6-25.6c-14.138 0-25.6 11.462-25.6 25.6v0c0 14.138 11.462 25.6 25.6 25.6v0zM384 371.2c14.138 0 25.6-11.462 25.6-25.6s-11.462-25.6-25.6-25.6c-14.138 0-25.6 11.462-25.6 25.6v0c0 14.138 11.462 25.6 25.6 25.6v0zM384 576v0c14.138 0 25.6-11.462 25.6-25.6s-11.462-25.6-25.6-25.6c-14.138 0-25.6 11.462-25.6 25.6v0c0 14.138 11.462 25.6 25.6 25.6v0c-70.692 0-128-57.308-128-128s57.308-128 128-128c70.692 0 128 57.308 128 128v0c0 70.692-57.308 128-128 128v0zM640 576c-0.046 0-0.101 0-0.155 0-29.457 0-56.59-9.95-78.22-26.673l0.296 0.22c16.907-29.179 26.884-64.198 26.884-101.547s-9.977-72.368-27.411-102.536l0.528 0.99c21.335-16.503 48.468-26.453 77.925-26.453 70.692 0 128 57.308 128 128 0 70.638-57.219 127.911-127.836 128h-0.008zM640 652.8c113.039-0.091 204.64-91.748 204.64-204.8 0-113.108-91.692-204.8-204.8-204.8-48.542 0-93.139 16.888-128.238 45.109l0.398-0.309c-34.701-27.912-79.298-44.8-127.84-44.8-113.108 0-204.8 91.692-204.8 204.8s91.692 204.8 204.8 204.8c48.542 0 93.14-16.888 128.238-45.109l-0.398 0.309c34.7 27.912 79.298 44.8 127.84 44.8 0.056 0 0.112 0 0.169 0h-0.008zM870.4 729.6h-716.8c-0.129 0.002-0.281 0.004-0.433 0.004-12.48 0-22.875-8.931-25.141-20.75l-0.026-0.16v-516.693c0-0.002 0-0.005 0-0.007 0-12.479 8.929-22.872 20.746-25.14l0.16-0.026h721.493c0.002 0 0.005 0 0.007 0 12.479 0 22.872 8.929 25.14 20.746l0.026 0.16v516.267c0 0.002 0 0.005 0 0.007 0 12.479-8.929 22.872-20.746 25.14l-0.16 0.026zM870.4 806.4c0.127 0.001 0.277 0.001 0.428 0.001 56.318 0 101.973-45.655 101.973-101.973 0-0.15 0-0.301-0.001-0.451v0.023-512c0.001-0.127 0.001-0.277 0.001-0.428 0-56.318-45.655-101.973-101.973-101.973-0.15 0-0.301 0-0.451 0.001h-716.777c-0.127-0.001-0.277-0.001-0.428-0.001-56.318 0-101.973 45.655-101.973 101.973 0 0.15 0 0.301 0.001 0.451v-0.023 512c-0.001 0.127-0.001 0.277-0.001 0.428 0 56.318 45.655 101.973 101.973 101.973 0.15 0 0.301 0 0.451-0.001h-0.023z" />
<glyph unicode="&#xe946;" glyph-name="card-visa" d="M772.267 475.307l-29.013-69.973h42.667zM810.667 587.947l55.467-265.387c0.511-2.2 0.805-4.726 0.805-7.321 0-15.253-10.132-28.14-24.033-32.298l-0.239-0.061c-1.913-0.424-4.11-0.666-6.363-0.666-15.243 0-27.893 11.102-30.305 25.661l-0.024 0.179-5.973 29.44h-85.333l-14.507-35.413c-3.998-12.104-15.207-20.684-28.42-20.684-5.222 0-10.13 1.34-14.401 3.695l0.154-0.078c-10.834 5.977-18.051 17.327-18.051 30.362 0 4.423 0.831 8.652 2.345 12.54l-0.081-0.235 108.8 264.96c1.255 15.622 14.243 27.825 30.080 27.825 16.663 0 30.171-13.508 30.171-30.171 0-0.826-0.033-1.644-0.098-2.453l0.007 0.107zM469.333 613.973h3.84c14.966-3.075 26.061-16.14 26.061-31.796 0-0.522-0.012-1.041-0.037-1.557l0.003 0.073v-4.693l-38.4-265.387c-1.883-15.805-15.206-27.942-31.364-27.942-1.277 0-2.535 0.076-3.772 0.223l0.15-0.015c-14.977 3.066-26.083 16.136-26.083 31.8 0 0.671 0.020 1.337 0.061 1.997l-0.004-0.091v3.413l38.4 265.387c1.565 16.007 14.881 28.435 31.131 28.587h0.015zM250.88 613.973c14.51-0.41 26.54-10.549 29.823-24.104l0.044-0.216v-4.693l17.92-145.92 62.293 154.88c4.308 11.54 15.237 19.608 28.050 19.608 4.364 0 8.509-0.936 12.246-2.618l-0.189 0.076c11.224-5.508 18.814-16.853 18.814-29.971 0-3.307-0.482-6.502-1.381-9.517l0.060 0.235v-4.267l-106.667-265.387c-4.83-10.379-15.17-17.446-27.161-17.446-13.591 0-25.062 9.078-28.679 21.501l-0.053 0.211v4.693l-32 236.373h-39.68c-15.905 0.593-28.766 12.864-30.283 28.457l-0.010 0.129v4.693c-0.009 0.292-0.015 0.635-0.015 0.979 0 15.802 11.303 28.964 26.265 31.842l0.203 0.033h70.4zM666.027 561.067c1.345-3.546 2.124-7.646 2.124-11.928 0-13.319-7.534-24.878-18.573-30.648l-0.191-0.091c-3.502-1.559-7.587-2.467-11.885-2.467-11.472 0-21.434 6.468-26.437 15.957l-0.078 0.163v4.267c-6.827 17.92-26.453 14.933-27.733 0 0.543-15.71 4.744-30.325 11.773-43.172l-0.253 0.505 7.68-17.92 11.947-26.027 6.827-15.787c8.679-16.807 13.767-36.683 13.767-57.748 0-1.899-0.041-3.787-0.123-5.666l0.009 0.268c-1.587-35.073-22.104-65.008-51.517-79.966l-0.536-0.247c-7.722-3.079-16.67-4.864-26.036-4.864-30.203 0-56.070 18.57-66.804 44.916l-0.174 0.482c-2.722 4.826-4.325 10.596-4.325 16.74 0 11.773 5.887 22.171 14.878 28.411l0.114 0.075c4.574 3.070 10.205 4.899 16.263 4.899 11.517 0 21.49-6.613 26.327-16.25l0.077-0.17c7.253-12.8 11.947-14.933 17.067-12.373 7.991 4.574 13.358 12.935 13.652 22.573l0.001 0.041c0.35 2.052 0.55 4.416 0.55 6.827s-0.2 4.774-0.584 7.076l0.034-0.249-2.56 7.68s0 2.987 0 4.693l-4.267 10.24-12.373 9.387-11.52 25.6c-15.295 26.282-24.323 57.844-24.323 91.514 0 0.377 0.001 0.754 0.003 1.13v-0.058c-0.117 1.567-0.184 3.393-0.184 5.236 0 41.237 33.429 74.667 74.667 74.667 35.225 0 64.753-24.392 72.614-57.207l0.103-0.509zM870.4 729.6h-716.8c-0.129 0.002-0.281 0.004-0.433 0.004-12.48 0-22.875-8.931-25.141-20.75l-0.026-0.16v-516.693c0-0.002 0-0.005 0-0.007 0-12.479 8.929-22.872 20.746-25.14l0.16-0.026h721.493c0.002 0 0.005 0 0.007 0 12.479 0 22.872 8.929 25.14 20.746l0.026 0.16v516.267c0 0.002 0 0.005 0 0.007 0 12.479-8.929 22.872-20.746 25.14l-0.16 0.026zM870.4 806.4c0.127 0.001 0.277 0.001 0.428 0.001 56.318 0 101.973-45.655 101.973-101.973 0-0.15 0-0.301-0.001-0.451v0.023-512c0.001-0.127 0.001-0.277 0.001-0.428 0-56.318-45.655-101.973-101.973-101.973-0.15 0-0.301 0-0.451 0.001h-716.777c-0.127-0.001-0.277-0.001-0.428-0.001-56.318 0-101.973 45.655-101.973 101.973 0 0.15 0 0.301 0.001 0.451v-0.023 512c-0.001 0.127-0.001 0.277-0.001 0.428 0 56.318 45.655 101.973 101.973 101.973 0.15 0 0.301 0 0.451-0.001h-0.023z" />
<glyph unicode="&#xe947;" glyph-name="change" d="M691.2 499.2c83.464 0 157.6-39.943 204.333-101.756l0.467-0.644v38.4c0.044 19.367 14.418 35.364 33.079 37.95l0.201 0.023h5.12c19.367-0.044 35.364-14.418 37.95-33.079l0.023-0.201v-158.293c-0.044-19.367-14.418-35.364-33.079-37.95l-0.201-0.023h-158.293c-20.965 0.316-37.839 17.385-37.839 38.396 0 19.203 14.095 35.114 32.504 37.95l0.215 0.027h77.653l-4.267 7.68c-30.807 56.831-90.005 94.774-158.066 94.774-71.084 0-132.502-41.389-161.468-101.383l-0.466-1.071h-82.347c33.68 104.737 130.248 179.2 244.208 179.2 0.096 0 0.191 0 0.287 0h-0.015zM282.453 908.8c0.039 0 0.086 0 0.132 0 13.894 0 26.495-5.534 35.719-14.518l-0.011 0.011 4.267-4.693 85.333-108.8h409.6c0.090 0.001 0.197 0.001 0.304 0.001 26.088 0 47.58-19.675 50.448-44.995l0.021-0.232v-121.173c0-21.208-17.192-38.4-38.4-38.4s-38.4 17.192-38.4 38.4v89.6h-418.987l-102.4 128h-142.080v-563.2h192c21.208 0 38.4-17.192 38.4-38.4s-17.192-38.4-38.4-38.4h-217.6c-0.090-0.001-0.197-0.001-0.304-0.001-26.088 0-47.58 19.675-50.448 44.995l-0.021 0.232v620.373c-0.001 0.105-0.001 0.229-0.001 0.352 0 25.937 19.448 47.331 44.557 50.397l0.245 0.024h186.027zM627.2 217.6c20.965-0.316 37.839-17.385 37.839-38.396 0-19.203-14.095-35.114-32.504-37.95l-0.215-0.027h-88.32c32.901-46.611 86.539-76.681 147.2-76.681s114.299 30.069 146.822 76.116l0.378 0.564h87.467c-40.411-91.432-130.308-154.080-234.837-154.080-69.709 0-132.91 27.862-179.075 73.057l0.045-0.044v-34.56c-0.044-19.367-14.418-35.364-33.079-37.95l-0.201-0.023h-5.12c-19.367 0.044-35.364 14.418-37.95 33.079l-0.023 0.201v158.293c0.044 19.367 14.418 35.364 33.079 37.95l0.201 0.023h158.293z" />
<glyph unicode="&#xe948;" glyph-name="collection-information" d="M357.547 832c-0.053 0-0.116 0-0.179 0-60.697 0-119.393-8.57-174.943-24.565l4.455 1.098-9.387-2.987 8.533-2.56c45.25-12.732 97.404-20.601 151.212-21.749l0.681-0.011h20.48c0.42-0.001 0.916-0.002 1.412-0.002 60.189 0 118.486 8.098 173.862 23.264l-4.607-1.076 8.107 2.133-10.24 3.413c-44.276 12.86-95.438 21.15-148.236 23.009l-1.097 0.031zM128 741.12v-103.253h3.84c8.222-4.509 17.944-8.832 28.034-12.371l1.406-0.429 9.387-6.4c53.952-16.276 115.954-25.645 180.144-25.645 2.668 0 5.333 0.016 7.994 0.048l-0.405-0.004c2.378-0.032 5.186-0.050 7.999-0.050 64.196 0 126.203 9.371 184.729 26.818l-4.568-1.169c15.15 4.807 28 10.158 40.278 16.464l-1.451-0.677h3.413v106.667c-66.741-23.547-143.701-37.151-223.84-37.151-2.307 0-4.611 0.011-6.912 0.034l0.352-0.003c-1.949-0.020-4.254-0.031-6.56-0.031-80.138 0-157.099 13.604-228.699 38.63l4.859-1.479zM128 553.387v-105.387l3.84-2.133c8.185-4.345 17.916-8.53 28-11.949l1.44-0.424 8.96-3.413c53.132-15.765 114.178-24.837 177.343-24.837 3.804 0 7.6 0.033 11.388 0.098l-0.57-0.008c1.123-0.007 2.451-0.011 3.781-0.011 65.742 0 129.189 9.827 188.952 28.093l-4.572-1.202c15.15 4.807 28 10.158 40.278 16.464l-1.451-0.677h3.413v105.387c-66.741-23.547-143.701-37.151-223.84-37.151-2.307 0-4.611 0.011-6.912 0.034l0.352-0.003c-1.949-0.020-4.254-0.031-6.56-0.031-80.138 0-157.099 13.604-228.699 38.63l4.859-1.479zM665.173 316.587c-0.705 0.003-1.538 0.005-2.372 0.005-59.992 0-117.908-8.888-172.503-25.42l4.209 1.095-9.813-3.413 8.533-2.56c45.167-13.001 97.271-21.163 151.053-22.596l0.84-0.018h20.053c0.145 0 0.317 0 0.489 0 60.563 0 119.16 8.412 174.689 24.132l-4.511-1.091 8.107 2.56-10.24 3.413c-44.886 13.734-96.656 22.359-150.205 23.875l-0.835 0.019zM128 365.653v-103.253h3.84c8.222-4.509 17.944-8.832 28.034-12.371l1.406-0.429 8.96-2.987c55.19-17.064 118.637-26.891 184.379-26.891 1.329 0 2.657 0.004 3.984 0.012l-0.204-0.001v70.4c4.369 16.567 14.997 30.118 29.139 38.241l0.301 0.159h-28.16c-2.319-0.028-5.059-0.044-7.803-0.044-80.152 0-157.126 13.609-228.736 38.643l4.859-1.479zM435.2 221.867v-107.947l3.84-2.133c8.258-4.673 17.971-9.133 28.068-12.792l1.372-0.435 8.96-2.987c55.081-17.87 118.458-28.172 184.241-28.172 1.378 0 2.755 0.005 4.131 0.014l-0.212-0.001c0.913-0.005 1.992-0.008 3.073-0.008 65.898 0 129.428 10.142 189.113 28.951l-4.452-1.21c15.103 5.058 27.934 10.685 40.154 17.297l-1.327-0.657 3.413 2.133v107.947c-66.877-24.613-144.109-38.851-224.665-38.851-2.016 0-4.030 0.009-6.042 0.027l0.308-0.002c-1.58-0.013-3.448-0.021-5.318-0.021-80.553 0-157.781 14.237-229.305 40.331l4.65-1.483zM346.88 140.8c-151.040 2.56-295.253 51.2-295.68 100.267v565.333c7.253 52.48 156.587 102.4 306.347 102.4s303.787-50.773 308.053-102.4v0-409.6c151.893 0 303.36-52.907 307.627-106.667v0-198.4c0-54.187-152.32-104.533-307.2-104.533s-306.773 50.347-307.2 104.533v49.067z" />
<glyph unicode="&#xe949;" glyph-name="delete" d="M640 832h-256c-0.002 0-0.005 0-0.007 0-12.479 0-22.872-8.929-25.14-20.746l-0.026-0.16v-107.093h307.2v102.4c0.002 0.106 0.002 0.232 0.002 0.358 0 12.632-9.149 23.127-21.183 25.22l-0.153 0.022zM601.6 550.4c21.208 0 38.4-17.192 38.4-38.4v0-332.8c0-21.208-17.192-38.4-38.4-38.4s-38.4 17.192-38.4 38.4v0 332.8c0 21.208 17.192 38.4 38.4 38.4v0zM422.4 550.4c21.208 0 38.4-17.192 38.4-38.4v0-332.8c0-21.208-17.192-38.4-38.4-38.4s-38.4 17.192-38.4 38.4v0 332.8c0 21.208 17.192 38.4 38.4 38.4v0zM793.6 627.2h-563.2v-537.6c0-0.002 0-0.005 0-0.007 0-12.479 8.929-22.872 20.746-25.14l0.16-0.026h516.693c0.002 0 0.005 0 0.007 0 12.479 0 22.872 8.929 25.14 20.746l0.026 0.16v541.867zM640 908.8c0.077 0 0.167 0 0.258 0 53.766 0 97.813-41.611 101.695-94.385l0.020-0.335v-110.080h192c21.208 0 38.4-17.192 38.4-38.4s-17.192-38.4-38.4-38.4h-63.573v-537.6c0-0.077 0-0.167 0-0.258 0-53.766-41.611-97.813-94.385-101.695l-0.335-0.020h-519.68c-0.077 0-0.167 0-0.258 0-53.766 0-97.813 41.611-101.695 94.385l-0.020 0.335v544.853h-64.427c-21.208 0-38.4 17.192-38.4 38.4s17.192 38.4 38.4 38.4h192v102.4c0 0.077 0 0.167 0 0.258 0 53.766 41.611 97.813 94.385 101.695l0.335 0.020h263.68z" />
<glyph unicode="&#xe94a;" glyph-name="pin" d="M743.253 827.733c-4.003 3.393-9.227 5.456-14.933 5.456-12.793 0-23.163-10.37-23.163-23.163 0-7.087 3.182-13.43 8.196-17.679l0.034-0.028 5.547-5.547v-2.56c1.604-2.388 2.56-5.328 2.56-8.491 0-0.015 0-0.030 0-0.045v0.002c-0.088-4.335-1.864-8.238-4.694-11.095l0.001 0.001-277.333-279.467h-2.987c-1.922-1.005-4.199-1.595-6.613-1.595s-4.691 0.59-6.694 1.633l0.080-0.038c-13.281 4.931-28.622 7.784-44.631 7.784-21.025 0-40.901-4.922-58.538-13.675l0.768 0.345 217.6-217.6 2.987 3.413c7.439 15.734 11.782 34.18 11.782 53.64 0 15.498-2.754 30.353-7.8 44.101l0.285-0.888c-0.559 1.528-0.883 3.293-0.883 5.133 0 4.352 1.81 8.281 4.718 11.076l0.005 0.005 279.467 279.893 2.987 2.133c2.342 1.52 5.206 2.424 8.281 2.424 4.27 0 8.134-1.743 10.918-4.556l5.548-5.548 2.987-2.56c3.631-2.275 8.044-3.624 12.772-3.624 6.457 0 12.326 2.516 16.68 6.622l-0.012-0.011c4.123 4.161 6.67 9.89 6.67 16.213s-2.547 12.052-6.672 16.215l0.002-0.002-142.933 139.52zM657.92 879.36c18.206 18.126 43.314 29.332 71.040 29.332s52.834-11.206 71.044-29.335l143.783-143.783c17.030-17.935 27.505-42.237 27.505-68.986 0-55.376-44.891-100.267-100.267-100.267-6.253 0-12.372 0.572-18.308 1.668l0.617-0.095h-3.413l-224.853-224.853v-5.973c1.342-8.218 2.108-17.69 2.108-27.341 0-37.605-11.639-72.492-31.511-101.255l0.389 0.596-5.12-5.973-52.48-53.76-135.253 135.68-286.293-286.72c-6.617-5.401-15.157-8.674-24.46-8.674-21.443 0-38.827 17.383-38.827 38.827 0 9.304 3.272 17.844 8.729 24.531l-0.055-0.070 262.827 262.4 23.893 24.32-135.68 136.533 54.187 54.187c29.589 21.736 66.737 34.783 106.932 34.783 10.302 0 20.404-0.857 30.238-2.504l-1.064 0.147h5.12l224.427 224.427v9.813c-0.803 4.736-1.262 10.191-1.262 15.754 0 23.512 8.197 45.109 21.89 62.089l-0.148-0.19z" />
<glyph unicode="&#xe94b;" glyph-name="unpin" d="M795.307 884.907l5.547-5.12 143.787-143.787c17.824-18.026 28.834-42.82 28.834-70.187s-11.010-52.161-28.843-70.196l0.009 0.009c-17.861-17.988-42.603-29.123-69.947-29.123-3.616 0-7.187 0.195-10.702 0.574l0.436-0.038h-11.52l-148.907-148.907-55.467 55.893 180.48 180.907 2.987 2.133c2.315 1.407 5.113 2.24 8.107 2.24s5.792-0.833 8.177-2.28l-0.070 0.040 2.987-2.133 5.547-5.547 2.987-2.56c3.631-2.275 8.044-3.624 12.772-3.624 6.457 0 12.326 2.516 16.68 6.622l-0.012-0.011c4.158 4.294 6.721 10.154 6.721 16.614 0 4.76-1.392 9.196-3.792 12.921l0.057-0.094-2.987 3.413-142.933 142.507-2.987 2.56c-3.737 2.626-8.381 4.196-13.391 4.196-6.422 0-12.241-2.579-16.478-6.759l0.003 0.003c-4.221-4.112-6.839-9.852-6.839-16.203 0-4.972 1.605-9.569 4.324-13.302l-0.045 0.065 2.56-3.413 5.547-5.547v-2.56c1.604-2.301 2.563-5.155 2.563-8.234 0-0.105-0.001-0.21-0.003-0.315v0.016c0-0.013 0-0.028 0-0.043 0-3.163-0.956-6.103-2.595-8.546l0.035 0.055v-2.56l-180.48-180.48-54.613 54.613 148.48 148.053v9.813c-0.488 3.723-0.766 8.028-0.766 12.398 0 21.917 7.002 42.198 18.891 58.729l-0.205-0.3 3.413 7.253 5.12 5.547c18.182 17.989 43.197 29.102 70.808 29.102 25.178 0 48.198-9.241 65.852-24.516l-0.127 0.108zM266.667 530.773l326.827-326.827-55.040-54.613-135.253 135.68-286.293-286.293c-6.972-7.025-16.631-11.374-27.307-11.374-21.245 0-38.467 17.222-38.467 38.467 0 10.569 4.263 20.143 11.163 27.096l-0.002-0.002 262.827 262.4 23.893 24.32-135.68 136.533zM116.907 897.707l844.373-844.8c7.025-6.972 11.374-16.631 11.374-27.307 0-21.245-17.222-38.467-38.467-38.467-10.569 0-20.143 4.263-27.096 11.163l-844.798 844.798c-5.401 6.617-8.674 15.157-8.674 24.46 0 21.443 17.383 38.827 38.827 38.827 9.304 0 17.844-3.272 24.531-8.729l-0.070 0.055z" />
<glyph unicode="&#xe94c;" glyph-name="quick-action" d="M640 832h-138.24l-210.347-384h228.267l-110.933-256 304.64 358.4h-213.333zM682.667 908.8c0 0 0.001 0 0.002 0 28.363 0 51.383-22.871 51.625-51.177v-0.023c-0.128-8.267-2.163-16.030-5.683-22.907l0.137 0.294-104.533-207.787h194.987c14.138 0 25.6-11.462 25.6-25.6v0c-0.003-6.832-2.774-13.017-7.253-17.493v0l-509.44-588.373c-5.186-5.255-12.388-8.51-20.35-8.51-15.788 0-28.587 12.799-28.587 28.587 0 3.354 0.578 6.573 1.639 9.564l-0.062-0.2 128 346.027h-203.947c-14.138 0-25.6 11.462-25.6 25.6v0c0.145 4.522 1.231 8.756 3.068 12.559l-0.081-0.186 258.987 472.747c8.994 16.051 25.846 26.751 45.209 26.88h0.018z" />
<glyph unicode="&#xe94d;" glyph-name="attachment" d="M606.72 856.747c33.020 32.18 78.192 52.028 128 52.028s94.98-19.848 128.039-52.066l-0.039 0.038c32.68-31.882 52.949-76.357 52.949-125.566 0-45.539-17.358-87.023-45.819-118.197l0.123 0.137-7.253-7.68-447.573-439.040c-20.399-19.763-48.243-31.944-78.933-31.944s-58.535 12.181-78.963 31.973l0.030-0.029c-20.174 19.634-32.69 47.049-32.69 77.388 0 27.286 10.124 52.208 26.821 71.214l-0.105-0.121 4.693 5.12 419.84 411.733c7.19 6.891 16.966 11.134 27.733 11.134s20.543-4.243 27.748-11.148l-0.014 0.014c6.959-6.755 11.277-16.196 11.277-26.647 0-8.653-2.961-16.614-7.924-22.927l0.060 0.080-3.413-4.267-418.987-410.88c-6.064-5.899-9.826-14.137-9.826-23.253s3.762-17.355 9.819-23.246l0.007-0.007c6.055-5.85 14.311-9.456 23.41-9.456 7.207 0 13.885 2.262 19.364 6.114l-0.107-0.071 4.267 3.413 448.853 440.747c18.592 18.15 30.122 43.462 30.122 71.467s-11.53 53.317-30.103 71.447l-0.020 0.019c-18.831 18.427-44.631 29.798-73.088 29.798-25.311 0-48.521-8.996-66.607-23.965l0.175 0.141-6.827-5.973-457.387-450.133c-30.598-29.731-49.584-71.272-49.584-117.247 0-42.304 16.075-80.854 42.451-109.874l-0.12 0.134 14.933-14.933c30.744-30.087 72.869-48.652 119.329-48.652 42.919 0 82.138 15.843 112.127 41.999l-0.203-0.174 7.68 6.827 429.653 421.12c7.079 6.963 16.797 11.263 27.52 11.263s20.441-4.299 27.525-11.268l-0.005 0.005c6.733-6.784 10.893-16.129 10.893-26.445 0-8.725-2.976-16.755-7.969-23.13l0.062 0.082-3.84-4.267-428.8-421.547c-45.060-44.186-106.847-71.457-175.004-71.457-63.982 0-122.35 24.033-166.571 63.563l0.242-0.212-8.96 8.107-6.827 5.973c-44.498 43.502-72.091 104.136-72.091 171.214 0 62.774 24.165 119.905 63.7 162.596l-0.143-0.156 8.533 8.533z" />
<glyph unicode="&#xe94e;" glyph-name="action-list" d="M780.8 601.6c21.208 0 38.4-17.192 38.4-38.4s-17.192-38.4-38.4-38.4h-204.8c-21.208 0-38.4 17.192-38.4 38.4s17.192 38.4 38.4 38.4v0zM500.48 744.533c7.195-7.053 11.656-16.873 11.656-27.735 0-8.303-2.606-15.996-7.045-22.308l0.082 0.124-3.84-4.267-148.907-179.2c-7.068-7.296-16.955-11.824-27.899-11.824-7.871 0-15.196 2.342-21.314 6.368l0.146-0.090-4.693 3.413-81.067 73.387c-7.969 7.069-12.967 17.336-12.967 28.77 0 21.208 17.192 38.4 38.4 38.4 8.023 0 15.472-2.461 21.632-6.668l-0.132 0.085 4.267-3.413 54.187-48.64 123.307 152.32c7.002 7.304 16.839 11.843 27.736 11.843 10.259 0 19.579-4.023 26.467-10.578l-0.016 0.015zM780.8 243.2c21.208 0 38.4-17.192 38.4-38.4s-17.192-38.4-38.4-38.4h-204.8c-21.208 0-38.4 17.192-38.4 38.4s17.192 38.4 38.4 38.4v0zM500.48 386.133c7.195-7.053 11.656-16.873 11.656-27.735 0-8.303-2.606-15.996-7.045-22.308l0.082 0.124-3.84-4.267-148.907-179.2c-7.068-7.296-16.955-11.824-27.899-11.824-7.871 0-15.196 2.342-21.314 6.368l0.146-0.090-4.693 2.133-81.067 74.667c-7.969 7.069-12.967 17.336-12.967 28.77 0 21.208 17.192 38.4 38.4 38.4 8.023 0 15.472-2.461 21.632-6.668l-0.132 0.085 4.267-3.413 54.187-48.64 123.307 152.32c7.002 7.304 16.839 11.843 27.736 11.843 10.259 0 19.579-4.023 26.467-10.578l-0.016 0.015zM896 832h-768v-768h768zM921.6 908.8c28.277 0 51.2-22.923 51.2-51.2v-819.2c0-28.277-22.923-51.2-51.2-51.2v0h-819.2c-28.277 0-51.2 22.923-51.2 51.2v0 819.2c0 28.277 22.923 51.2 51.2 51.2v0z" />
<glyph unicode="&#xe94f;" glyph-name="cardholder" d="M435.2 832c-63.623 0-115.2-51.577-115.2-115.2s51.577-115.2 115.2-115.2c63.623 0 115.2 51.577 115.2 115.2v0c0 63.623-51.577 115.2-115.2 115.2v0zM435.2 908.8c106.039 0 192-85.961 192-192s-85.961-192-192-192c-106.039 0-192 85.961-192 192v0c0 0.127 0 0.277 0 0.427 0 105.803 85.77 191.573 191.573 191.573 0.15 0 0.3 0 0.45-0.001h-0.023zM563.2 345.6v-51.2h332.8v51.2zM371.2 473.6c21.208 0 38.4-17.192 38.4-38.4s-17.192-38.4-38.4-38.4v0c-63.835-0.197-121.799-25.176-164.808-65.814l0.115 0.108c-40.893-41.551-68.384-96.4-75.404-157.477l-0.116-1.243v-5.973h240.213c19.367-0.044 35.364-14.418 37.95-33.079l0.023-0.201v-5.12c-0.044-19.367-14.418-35.364-33.079-37.95l-0.201-0.023h-286.293c-21.208 0-38.4 17.192-38.4 38.4v0c-0.044 2.091-0.069 4.556-0.069 7.027 0 96.803 38.424 184.632 100.853 249.067l-0.091-0.094c56.665 54.99 133.998 88.958 219.265 89.173h0.042zM896 217.6h-332.8v-153.6h332.8zM972.8 52.053c-1.815-35.272-30.313-63.324-65.602-64.424l-0.104-0.003h-348.16c-0.918-0.043-1.995-0.068-3.077-0.068-34.6 0-63.335 25.113-68.971 58.107l-0.058 0.414v311.467c1.815 35.272 30.313 63.324 65.602 64.424l0.104 0.003h347.733c0.878 0.039 1.907 0.062 2.942 0.062 34.902 0 63.836-25.553 69.113-58.972l0.052-0.397v-311.893z" />
<glyph unicode="&#xe950;" glyph-name="client-contact" d="M407.040 503.893l-2.56-2.133-18.347-18.347c-6.299-5.997-10.217-14.446-10.217-23.81 0-7.061 2.228-13.603 6.019-18.959l-0.069 0.103c53.676-79.815 120.293-146.431 197.54-198.477l2.567-1.63c5.377-3.702 12.030-5.912 19.2-5.912s13.823 2.21 19.315 5.987l-0.115-0.075 3.84 3.413 18.347 18.347c2.47 2.993 3.967 6.868 3.967 11.093s-1.498 8.1-3.991 11.123l0.024-0.030v2.987l-33.28 32.427c-3.057 2.501-7.005 4.017-11.307 4.017s-8.25-1.516-11.339-4.043l0.032 0.025h-2.56l-11.093-11.093c-2.374-2.288-5.609-3.698-9.173-3.698s-6.799 1.41-9.177 3.702l0.004-0.004c-38.228 31.486-72.194 65.452-102.662 102.408l-1.018 1.272c-1.572 2.195-2.513 4.934-2.513 7.893s0.941 5.698 2.541 7.935l-0.028-0.041 2.133 2.56 11.093 11.093c3.174 3.167 5.138 7.546 5.138 12.384 0 3.659-1.123 7.055-3.043 9.863l0.039-0.060-2.133 2.987-33.28 33.28c-3.311 3.99-8.271 6.513-13.82 6.513-3.761 0-7.252-1.159-10.134-3.139l0.061 0.039zM472.32 555.947l5.973-5.547 33.28-33.28c16.069-15.538 26.046-37.291 26.046-61.374 0-8.539-1.254-16.785-3.588-24.563l0.156 0.604-2.56-7.253 14.933-15.36 13.653-13.653 6.827-5.973 8.107 2.133c6.939 2.032 14.911 3.202 23.155 3.202 15.318 0 29.693-4.036 42.12-11.102l-0.422 0.221 7.253-4.693 6.4-5.12 36.693-36.693c16.083-15.54 26.069-37.302 26.069-61.397 0-21.25-7.767-40.685-20.617-55.622l0.094 0.112-5.547-5.973-17.92-18.347c-18.583-18.111-44.006-29.281-72.037-29.281-20.795 0-40.154 6.147-56.359 16.724l0.397-0.243c-87.989 58.689-161.324 131.888-218.384 216.923l-1.776 2.81c-10.699 15.922-17.076 35.525-17.076 56.618 0 25.338 9.203 48.527 24.448 66.406l-0.119-0.143 5.547 7.253 18.347 17.92c15.5 15.807 37.079 25.605 60.945 25.605 21.459 0 41.068-7.921 56.063-20.999l-0.102 0.087zM230.4 691.2v-592.213c0.363-18.066 14.199-32.789 31.852-34.548l0.148-0.012h531.2v620.8h-526.507c-0.338-0.004-0.738-0.006-1.138-0.006-10.693 0-21.022 1.561-30.77 4.467l0.761-0.195zM267.093 908.8h564.48c0.063 0 0.138 0.001 0.213 0.001 21.208 0 38.401-17.193 38.401-38.401 0-21.133-17.071-38.279-38.176-38.4h-564.919c-0.255 0.007-0.556 0.010-0.857 0.010-17.839 0-32.635-13.034-35.383-30.098l-0.027-0.205v-4.693c0.53-18.094 14.235-32.829 31.826-34.969l0.174-0.017h569.173c19.367-0.044 35.364-14.418 37.95-33.079l0.023-0.201v-703.147c-0.044-19.367-14.418-35.364-33.079-37.95l-0.201-0.023h-569.6c-0.233-0.002-0.508-0.003-0.783-0.003-59.057 0-107.498 45.449-112.256 103.278l-0.027 0.405v713.813c4.511 55.848 49.308 99.909 105.077 103.239l0.309 0.015z" />
</font>
</defs>
</svg>
